{"glyphs":{"0":{"ha":582,"x_min":0,"x_max":582,"o":"m 280 703 l 344 703 l 397 699 l 397 688 l 307 693 l 280 693 l 280 703 m 492 677 l 497 677 q 576 555 576 661 l 582 518 l 576 270 l 576 191 q 471 11 576 11 l 471 21 q 555 196 538 21 l 555 423 q 492 677 555 627 m 191 672 l 391 661 l 450 667 q 524 476 524 642 l 529 338 l 529 222 q 408 32 529 32 l 370 32 l 121 47 q 53 196 62 47 l 53 201 l 47 540 q 170 672 65 672 l 191 672 m 64 667 l 74 667 q 21 545 21 606 l 26 170 q 127 16 47 16 l 148 21 l 291 11 l 291 0 l 259 0 q 21 79 21 0 q 0 227 8 79 l 5 296 l 0 487 q 64 667 0 633 m 238 487 l 233 423 l 233 397 l 238 227 l 270 217 l 333 217 q 349 302 349 217 l 349 397 q 323 487 349 487 l 254 481 l 238 487 m 312 460 q 323 402 323 439 l 323 286 q 307 243 323 247 l 275 243 q 264 259 264 243 l 259 423 q 312 460 259 460 z "},"1":{"ha":413,"x_min":0,"x_max":400,"o":"m 142 684 l 153 684 l 153 673 l 142 673 l 142 684 m 132 679 l 132 669 q 37 595 37 649 l 32 505 l 32 484 q 111 442 33 467 l 116 406 l 100 142 l 100 137 q 147 16 100 50 l 147 11 l 126 11 q 84 137 84 39 l 90 421 q 16 463 90 444 q 0 547 0 513 q 121 679 0 642 l 132 679 m 337 679 q 395 532 395 679 l 389 368 l 395 163 l 400 147 q 311 0 400 0 l 311 11 q 374 126 374 31 l 368 410 l 374 516 q 337 669 361 669 l 337 679 m 221 658 l 258 658 q 342 585 342 658 l 342 484 l 347 116 q 263 26 347 26 l 216 26 q 126 142 126 26 l 142 389 l 142 400 q 68 484 142 484 l 58 495 l 58 500 q 90 627 58 627 q 221 658 162 658 z "},"2":{"ha":577,"x_min":0,"x_max":572,"o":"m 406 695 q 567 481 567 695 l 567 454 q 492 315 558 315 l 487 310 l 487 305 l 498 278 l 492 278 q 348 241 385 241 l 315 241 l 300 252 q 450 300 300 287 q 546 481 546 353 l 546 508 q 433 680 546 640 l 406 685 l 406 695 m 54 685 l 91 685 l 91 674 q 37 551 37 674 l 37 471 l 43 444 l 26 444 l 16 454 l 16 583 q 54 685 16 667 m 267 669 l 337 669 q 513 551 513 652 l 519 487 q 358 315 519 315 q 267 235 267 301 q 337 209 314 209 l 508 252 q 519 182 519 227 l 519 118 q 487 32 519 48 l 166 26 q 70 64 70 26 l 54 187 q 102 385 54 385 q 289 487 289 424 q 219 519 248 519 l 75 481 q 64 541 64 503 q 113 652 64 652 q 267 669 194 669 m 214 487 l 241 487 l 257 471 q 85 412 257 450 q 59 450 85 428 q 214 487 185 487 m 80 412 l 85 412 q 32 267 32 389 l 26 187 q 75 11 37 11 l 75 0 l 54 0 q 0 235 15 0 q 80 412 10 412 m 541 283 l 551 283 q 572 144 567 283 q 541 11 564 11 l 519 11 l 519 16 q 546 113 546 63 l 546 150 l 541 283 z "},"3":{"ha":572,"x_min":0,"x_max":572,"o":"m 450 689 l 461 689 q 562 567 539 689 l 567 519 q 488 387 567 401 q 477 360 478 387 q 572 222 572 329 l 572 207 q 323 0 572 0 l 323 11 q 541 138 467 11 l 551 186 l 551 207 q 472 339 541 339 q 414 376 414 365 q 525 440 525 411 l 546 514 q 450 689 546 611 m 64 684 l 85 684 l 85 678 q 47 551 47 636 q 69 461 51 461 l 74 461 l 74 450 l 43 450 q 26 546 26 450 l 26 562 q 64 684 26 669 m 111 663 l 435 663 q 514 535 514 608 l 514 493 q 408 408 514 425 q 382 366 382 391 q 498 297 393 344 q 525 201 525 258 l 525 191 q 281 32 525 57 l 201 32 q 69 64 69 32 q 53 159 58 83 q 79 254 53 254 q 254 217 213 217 q 286 265 281 217 l 281 297 l 281 307 l 286 313 l 286 318 q 233 334 259 334 l 180 334 l 170 345 l 170 403 q 281 429 170 415 l 292 493 l 292 519 l 239 530 l 85 493 l 74 562 q 111 663 87 663 m 228 498 l 254 498 q 265 482 265 498 q 196 445 265 445 l 159 445 q 143 387 143 445 l 143 350 q 164 307 143 307 l 149 265 q 69 281 105 281 l 53 281 q 26 149 32 281 q 69 16 26 65 l 69 11 q 0 122 0 11 q 37 297 9 297 l 122 292 l 122 424 q 90 456 122 456 l 90 467 l 228 498 m 222 307 l 244 307 l 254 297 l 254 254 l 244 244 l 228 244 l 217 254 l 217 260 q 233 286 233 260 l 222 302 l 222 307 m 164 271 l 207 260 l 207 249 l 201 249 l 164 260 l 164 271 m 79 16 l 90 16 l 90 5 l 79 5 l 79 16 z "},"4":{"ha":696,"x_min":0,"x_max":677,"o":"m 517 677 l 549 677 q 591 565 591 650 l 586 378 l 597 341 l 581 341 q 565 416 565 341 l 570 549 q 517 666 570 666 l 517 677 m 170 671 l 186 671 l 186 666 q 32 272 125 587 l 32 240 q 69 133 36 182 l 69 128 q 0 224 8 128 l 0 235 q 170 671 0 379 m 448 650 q 538 597 538 650 l 538 405 q 591 315 538 315 q 623 304 623 315 l 623 181 l 613 170 l 549 170 q 501 21 539 21 l 421 16 q 325 80 325 16 l 325 155 l 123 155 q 58 250 58 155 q 186 623 58 310 l 218 645 l 448 650 m 181 319 l 256 309 l 325 309 l 325 501 l 261 511 q 176 325 187 511 l 181 319 m 282 485 l 298 469 l 298 352 l 288 341 l 272 341 l 277 378 l 277 389 q 240 432 272 432 l 229 362 l 235 347 l 229 341 l 213 341 l 208 347 l 203 347 q 272 485 218 485 l 282 485 m 645 341 l 661 341 q 677 261 677 341 l 671 149 l 640 138 l 640 144 l 650 160 l 650 315 l 645 341 m 597 138 l 597 128 l 586 128 l 597 64 q 538 0 583 0 l 533 0 q 576 138 559 18 l 597 138 m 277 128 l 288 128 l 298 117 l 298 96 q 325 5 298 41 l 325 0 l 309 0 q 272 101 272 24 l 277 128 z "},"5":{"ha":587,"x_min":0,"x_max":562,"o":"m 187 698 l 214 692 l 214 682 q 52 650 52 682 q 31 500 37 592 l 41 292 l 52 281 l 52 276 l 37 271 q 16 292 16 276 l 21 344 l 0 578 q 120 698 0 698 l 187 698 m 510 687 q 547 572 547 640 q 526 479 541 479 l 515 479 l 505 490 q 526 583 526 533 q 448 671 503 671 l 448 682 l 474 682 l 510 687 m 333 667 q 500 572 500 667 q 474 505 491 505 l 338 505 q 276 479 276 496 l 276 448 q 370 411 304 411 l 427 411 q 510 229 510 411 q 432 57 510 88 q 313 37 384 37 l 297 37 q 73 68 73 37 q 62 120 64 68 l 62 167 q 78 208 62 205 l 88 208 l 187 203 q 292 239 292 214 l 292 255 q 229 307 292 298 l 73 302 l 68 307 l 62 490 l 62 536 q 99 646 62 646 l 333 667 m 338 479 l 344 479 q 354 448 354 479 l 385 448 l 385 437 q 307 458 307 437 l 307 463 q 338 479 313 479 m 448 442 q 547 380 534 442 q 562 224 562 312 q 484 26 554 26 q 364 0 474 4 l 302 0 l 302 10 l 333 10 q 521 109 469 10 l 536 229 l 536 245 q 448 432 524 432 l 448 442 m 234 281 q 265 255 256 274 q 218 234 258 234 l 109 234 q 156 276 109 276 l 234 281 m 31 234 l 37 234 l 41 229 l 47 229 q 37 161 37 205 l 37 115 q 68 26 37 47 l 104 26 l 104 16 l 62 16 l 37 10 q 0 156 0 73 q 31 234 12 234 z "},"6":{"ha":577,"x_min":0,"x_max":562,"o":"m 144 681 l 155 681 l 155 671 l 144 671 l 144 681 m 134 675 l 134 665 q 31 526 50 665 l 31 511 l 41 304 l 41 186 q 109 16 41 55 l 113 16 l 113 5 q 16 119 28 5 q 0 412 0 285 q 67 655 0 655 q 134 675 71 667 m 490 665 l 516 665 q 547 557 542 665 q 526 464 547 464 l 505 464 l 505 469 q 521 531 521 488 l 521 562 q 490 665 521 608 m 196 650 l 423 640 l 464 645 q 495 557 495 612 l 495 511 l 475 490 l 320 495 q 253 454 284 495 q 330 402 274 402 l 433 408 q 511 232 511 391 q 428 31 500 31 l 150 31 q 67 201 67 31 l 67 320 l 57 526 q 196 650 57 650 m 330 469 l 330 459 l 299 438 l 289 449 l 289 459 l 330 469 m 444 438 l 454 438 l 454 428 l 444 428 l 444 438 m 464 433 l 469 433 q 562 294 562 414 l 562 216 q 449 0 562 0 l 449 10 q 536 227 520 10 q 464 423 524 423 l 464 433 m 222 222 l 242 180 l 258 186 l 289 180 q 340 222 340 180 l 340 242 q 283 283 340 283 q 222 222 222 271 m 294 258 l 315 242 l 315 222 l 304 212 l 263 212 l 253 222 l 253 237 q 294 258 253 253 z "},"7":{"ha":572,"x_min":0,"x_max":555,"o":"m 336 699 l 411 699 l 411 688 l 336 688 l 336 699 m 427 694 l 470 694 l 470 683 l 427 683 l 427 694 m 85 683 l 85 673 q 32 587 32 673 l 32 517 q 64 454 39 454 l 64 443 l 48 443 q 0 566 0 443 q 48 678 0 678 l 85 683 m 507 683 l 528 683 q 555 550 555 675 q 437 11 555 397 l 432 5 l 400 5 l 400 11 q 480 299 441 82 q 534 550 534 445 q 507 683 534 604 m 235 667 l 486 656 q 507 545 502 621 q 422 155 507 488 q 368 26 396 26 l 224 26 l 182 37 l 267 406 l 272 465 l 267 470 l 112 470 q 59 523 59 470 l 59 545 q 85 646 59 646 q 235 667 153 667 m 197 443 l 235 443 l 240 437 l 245 437 l 160 75 l 155 16 l 160 16 l 176 11 l 176 0 q 128 26 128 3 q 219 427 128 124 l 197 432 l 197 443 z "},"8":{"ha":622,"x_min":0,"x_max":604,"o":"m 207 694 l 217 694 l 217 683 q 42 541 42 665 l 32 498 q 122 376 46 376 q 180 355 180 376 q 143 334 172 334 l 132 334 l 132 366 l 90 366 q 16 487 28 366 l 16 513 q 207 694 16 694 m 477 683 l 487 683 q 588 503 588 652 q 513 371 588 371 l 503 371 l 503 376 q 567 492 567 437 q 466 667 567 610 l 466 673 l 477 683 m 318 667 q 535 503 535 667 l 535 477 q 424 392 535 401 l 402 392 l 402 334 q 513 302 409 309 q 556 191 556 260 q 471 26 534 26 l 439 26 l 228 11 l 207 11 q 53 196 53 11 l 53 201 q 138 307 53 307 q 207 355 207 307 q 100 408 207 408 q 64 482 64 439 l 64 503 q 296 667 64 667 l 318 667 m 238 460 q 296 413 238 413 l 307 413 q 366 439 366 421 l 366 482 q 292 513 332 513 q 238 460 238 500 m 281 482 l 296 482 q 339 466 336 482 l 339 456 q 292 439 339 439 l 270 456 l 270 471 l 281 482 m 466 371 l 471 345 l 513 345 q 604 191 604 319 l 604 170 q 530 0 604 54 l 509 0 l 509 5 q 583 191 583 85 q 434 339 583 339 l 429 345 l 429 355 q 466 371 429 363 m 96 339 l 96 328 q 26 212 26 302 l 26 191 q 106 5 26 70 l 106 0 l 100 0 q 0 185 0 25 q 90 339 0 319 l 96 339 m 254 296 l 249 260 l 249 238 q 270 196 256 199 l 313 196 q 366 222 353 196 l 366 270 q 307 296 366 288 l 254 296 m 286 270 l 307 270 q 339 254 339 267 l 339 238 l 323 222 l 286 222 l 275 233 l 275 260 l 286 270 z "},"9":{"ha":582,"x_min":0,"x_max":572,"o":"m 126 683 l 126 672 q 26 431 26 602 l 26 404 q 174 241 26 241 q 278 226 278 241 q 241 205 278 212 q 90 236 90 215 q 0 478 18 236 q 126 683 0 683 m 457 683 l 462 683 q 567 525 567 646 l 572 415 l 572 289 q 509 26 572 26 q 462 0 486 0 l 457 0 l 457 10 q 536 153 536 45 l 530 478 l 530 520 q 457 677 530 628 l 457 683 m 210 662 l 383 651 l 431 651 q 504 499 504 651 l 504 410 l 509 157 q 362 21 509 21 l 352 21 l 94 37 q 73 115 79 55 q 105 189 73 189 l 115 189 l 241 178 q 310 247 310 178 q 105 278 310 268 q 52 410 52 316 l 52 415 q 168 656 67 656 l 210 662 m 226 446 q 252 399 236 399 l 268 399 q 341 425 341 403 l 341 478 q 289 504 341 495 q 226 446 226 492 m 289 478 q 315 462 315 471 l 315 441 l 304 431 l 262 431 l 252 441 l 252 452 q 289 478 256 467 m 37 205 l 58 205 l 47 115 q 73 10 47 67 l 147 10 l 147 0 l 58 0 q 21 90 21 20 l 21 174 q 37 205 24 205 z "}," ":{"ha":386,"x_min":0,"x_max":0,"o":""},"!":{"ha":386,"x_min":34,"x_max":343,"o":"m 54 669 l 60 664 l 60 633 q 101 252 60 401 q 65 144 80 252 l 65 119 q 147 10 65 10 l 178 10 l 178 0 l 137 0 q 39 98 39 0 l 39 108 q 70 258 39 180 q 34 582 34 496 q 54 669 34 669 m 312 669 l 328 669 l 343 654 l 343 597 q 312 262 343 487 q 338 129 338 222 q 302 20 338 20 l 292 20 l 292 26 q 317 129 317 85 q 281 262 317 193 q 328 618 304 262 q 312 664 328 642 l 312 669 m 230 659 l 245 659 q 302 608 302 659 q 250 252 274 252 q 286 149 286 215 l 286 98 q 240 36 286 36 l 153 36 q 91 134 91 36 l 91 139 q 137 247 91 212 q 85 638 85 359 q 230 659 151 659 z "},"\"":{"ha":493,"x_min":0,"x_max":0,"o":""},"#":{"ha":772,"x_min":0,"x_max":0,"o":""},"$":{"ha":772,"x_min":0,"x_max":0,"o":""},"%":{"ha":1235,"x_min":0,"x_max":0,"o":""},"&":{"ha":926,"x_min":0,"x_max":0,"o":""},"'":{"ha":265,"x_min":0,"x_max":0,"o":""},"(":{"ha":258,"x_min":14,"x_max":254,"o":"m 169 682 l 202 682 l 254 626 l 254 593 q 193 518 254 571 q 174 349 178 463 q 220 141 174 166 q 254 94 254 120 l 254 75 q 169 0 254 18 q 23 174 64 0 l 14 349 l 14 372 q 108 664 14 624 q 169 682 144 682 z "},")":{"ha":229,"x_min":0,"x_max":234,"o":"m 89 679 l 103 679 q 234 389 234 679 l 234 281 q 94 0 234 24 q 0 84 0 14 l 0 89 q 61 168 0 114 q 79 318 79 223 l 79 365 q 33 543 79 519 q 0 594 0 568 l 0 608 q 89 679 0 663 z "},"*":{"ha":541,"x_min":0,"x_max":0,"o":""},"+":{"ha":811,"x_min":0,"x_max":0,"o":""},",":{"ha":204,"x_min":34,"x_max":151,"o":"m 99 126 q 151 69 151 126 q 99 -20 151 -7 l 88 -20 q 75 -4 79 -15 l 77 7 q 34 58 34 20 l 34 66 q 99 126 34 126 m 47 66 q 91 15 47 15 q 102 -7 96 -7 l 107 -7 q 137 72 137 21 q 99 121 130 121 l 91 121 q 47 66 47 121 m 91 107 l 96 107 q 123 69 120 107 l 113 23 l 107 23 l 107 28 l 94 28 q 61 69 61 28 q 91 107 66 107 z "},"-":{"ha":463,"x_min":0,"x_max":0,"o":""},".":{"ha":154,"x_min":14,"x_max":130,"o":"m 84 109 q 130 54 130 109 q 98 0 130 0 l 95 0 l 95 3 q 117 46 117 25 l 117 54 q 84 103 117 103 l 84 109 m 60 106 l 60 100 q 27 46 39 100 q 43 3 27 27 l 41 3 q 14 52 14 3 q 60 106 24 106 m 76 92 q 103 54 103 92 l 103 49 q 62 11 103 11 q 43 41 47 11 l 43 54 q 76 92 54 92 z "},"/":{"ha":386,"x_min":0,"x_max":0,"o":""},":":{"ha":386,"x_min":0,"x_max":0,"o":""},";":{"ha":386,"x_min":0,"x_max":0,"o":""},"<":{"ha":811,"x_min":0,"x_max":0,"o":""},"=":{"ha":811,"x_min":0,"x_max":0,"o":""},">":{"ha":811,"x_min":0,"x_max":0,"o":""},"?":{"ha":567,"x_min":7,"x_max":543,"o":"m 420 684 l 426 684 q 543 498 522 684 l 543 477 q 399 265 543 304 l 405 260 l 405 254 l 410 117 q 378 0 401 0 l 351 0 l 351 11 q 383 106 383 20 q 362 254 378 193 q 495 350 481 331 q 527 488 527 433 q 420 673 527 612 l 420 684 m 44 673 l 71 673 l 71 669 q 28 536 28 614 l 50 408 l 33 408 q 7 541 12 408 q 44 673 18 673 m 325 663 l 347 663 q 490 547 453 663 l 495 498 l 495 461 q 357 292 495 341 l 330 260 q 357 111 347 216 q 325 32 357 32 l 245 21 q 187 47 187 29 l 187 164 q 208 239 187 214 l 193 292 l 193 355 l 272 398 l 283 440 q 235 467 283 467 l 219 467 l 76 440 q 60 504 60 459 l 60 557 q 92 647 60 626 l 113 647 l 325 663 m 224 440 l 251 440 l 251 425 q 171 376 251 414 l 161 308 l 176 244 q 161 170 161 203 l 161 32 q 187 11 172 11 l 187 0 l 155 0 q 129 75 138 0 l 144 239 l 140 355 q 161 398 140 372 q 144 419 153 419 l 123 414 l 123 425 l 224 440 z "},"@":{"ha":1410,"x_min":0,"x_max":0,"o":""},"A":{"ha":682,"x_min":0,"x_max":682,"o":"m 372 697 l 382 697 l 382 687 l 372 687 l 372 697 m 409 697 l 414 697 q 540 624 525 697 l 650 210 q 682 31 682 124 l 682 26 q 597 0 677 7 l 597 10 q 655 37 653 10 q 456 676 524 676 l 409 687 l 409 697 m 320 692 l 336 692 l 336 682 l 320 682 l 320 692 m 278 687 l 299 687 l 299 676 l 278 676 l 278 687 m 184 676 l 199 676 l 205 671 l 210 671 q 21 37 124 490 l 52 16 l 52 5 l 47 5 q 0 26 7 5 l 0 42 q 157 645 0 182 l 184 676 m 399 661 l 409 661 q 519 488 487 661 q 624 47 624 104 l 624 42 q 503 26 566 26 q 404 47 404 29 l 404 194 q 388 278 404 278 l 288 278 l 278 199 l 278 163 l 283 94 q 246 31 283 31 l 131 26 q 52 47 52 33 q 236 650 163 545 l 257 650 l 399 661 m 278 414 q 378 393 289 399 q 399 446 399 415 l 399 488 l 351 498 l 304 498 q 278 414 285 498 m 320 472 l 357 472 l 372 456 l 372 435 l 361 425 l 320 425 l 309 435 l 309 461 l 320 472 m 320 252 l 361 252 q 378 194 378 252 l 378 26 q 399 16 378 16 l 399 5 l 351 16 l 299 5 l 309 94 l 304 210 q 320 252 309 252 z "},"B":{"ha":597,"x_min":0,"x_max":582,"o":"m 159 699 l 159 688 q 37 629 37 688 l 26 529 l 26 497 l 21 111 q 68 16 37 16 l 68 5 q 5 85 5 5 l 5 259 l 0 571 q 95 699 0 699 l 159 699 m 439 688 q 576 550 576 688 l 576 476 q 529 355 576 423 q 582 222 582 243 l 582 159 q 444 0 582 28 l 444 11 q 555 159 555 52 l 555 191 q 487 344 555 286 q 550 492 550 411 l 550 529 q 471 672 550 633 l 439 677 l 439 688 m 291 667 q 518 566 518 667 l 524 524 l 524 497 q 450 359 524 395 q 503 286 450 330 q 529 185 529 253 l 529 180 q 412 32 513 32 q 296 21 412 21 l 222 21 q 53 85 53 21 l 47 121 l 53 429 l 53 497 q 85 650 53 650 q 291 667 194 667 m 227 465 l 243 412 l 307 412 q 349 450 349 412 l 349 465 q 291 518 349 518 q 227 465 248 518 m 307 492 q 323 455 323 473 l 323 450 l 312 439 l 270 439 l 259 450 l 259 471 q 307 492 267 492 m 227 222 q 280 180 227 180 l 296 180 q 349 217 349 180 q 323 275 349 275 l 296 280 l 291 280 q 227 222 227 277 m 291 254 l 307 254 q 323 222 323 249 l 307 206 l 270 206 q 254 227 262 206 q 291 254 261 254 z "},"C":{"ha":587,"x_min":0,"x_max":544,"o":"m 425 694 l 430 694 q 544 580 544 694 l 544 559 q 503 409 526 409 l 487 409 l 476 419 q 513 538 513 458 l 513 570 q 440 684 513 684 l 425 684 l 425 694 m 109 684 l 109 673 q 31 517 48 673 l 31 145 q 181 16 31 16 l 181 5 l 176 5 q 26 57 55 5 q 5 161 5 113 l 5 269 l 0 554 q 104 684 12 684 l 109 684 m 165 663 l 336 658 l 393 663 q 487 580 487 663 l 487 549 q 456 446 487 463 q 305 471 396 471 l 290 471 l 264 466 l 264 238 l 326 228 q 466 254 361 228 q 487 165 487 214 q 450 57 487 57 q 305 36 376 36 l 233 36 q 57 140 57 36 l 57 165 l 62 332 l 57 507 q 165 663 57 663 m 300 446 l 311 446 l 321 435 l 311 393 l 311 264 l 321 264 l 460 290 l 460 279 q 321 254 356 254 l 305 254 l 290 269 l 290 435 l 300 446 m 357 440 l 460 419 l 460 409 l 357 430 l 357 440 m 471 295 l 481 295 q 544 140 544 295 l 544 134 q 446 10 544 10 l 295 0 l 295 10 l 316 10 q 507 73 507 22 l 513 165 q 471 290 513 252 l 471 295 m 191 10 l 243 10 l 243 0 l 191 0 l 191 10 z "},"D":{"ha":637,"x_min":0,"x_max":627,"o":"m 193 707 l 193 696 q 54 669 54 696 q 32 562 32 616 l 32 172 q 59 26 32 76 l 54 22 l 37 22 q 5 166 9 34 l 5 193 l 0 547 q 75 702 0 702 l 193 707 m 503 702 l 509 702 q 616 541 616 681 l 627 342 q 573 48 627 48 q 503 16 546 16 q 600 235 600 66 l 605 300 q 514 686 590 686 l 509 691 l 503 691 l 503 702 m 380 686 q 547 578 547 686 q 573 342 573 485 l 573 246 q 514 59 573 96 l 482 37 l 460 37 l 209 32 q 70 75 70 32 l 59 182 l 59 541 q 107 664 59 664 l 380 686 m 252 412 l 257 235 l 252 231 q 300 214 272 214 l 321 214 l 370 225 l 370 477 q 311 498 370 490 q 252 412 259 498 m 316 471 q 342 455 342 465 l 342 252 l 332 241 l 294 241 q 284 257 284 241 l 279 412 q 316 471 279 464 m 342 11 l 439 11 l 439 0 l 342 0 l 342 11 z "},"E":{"ha":572,"x_min":0,"x_max":554,"o":"m 48 699 l 102 699 l 102 688 q 48 656 48 688 q 22 323 22 530 q 81 11 22 11 l 92 11 l 92 0 q 22 27 38 0 q 0 151 5 79 l 5 355 l 0 549 q 48 699 9 686 m 500 694 l 522 694 q 538 635 538 694 l 538 570 q 522 500 538 500 l 500 500 l 500 505 q 516 597 516 556 l 516 613 l 500 694 m 264 677 q 484 656 484 674 l 490 591 q 446 522 490 522 l 414 522 l 360 527 l 258 505 l 258 495 q 339 425 258 425 l 463 430 l 484 430 l 495 420 l 495 366 q 463 323 495 323 l 420 317 l 274 323 q 258 279 258 300 q 334 226 258 233 l 441 231 q 505 123 505 231 q 452 33 505 33 l 258 22 q 75 59 75 22 q 48 328 48 177 q 86 661 58 657 l 264 677 m 301 490 l 312 490 l 345 468 l 345 457 l 323 457 q 290 473 295 457 l 290 479 l 301 490 m 516 457 l 527 457 l 543 441 l 543 404 l 549 376 l 543 345 l 543 312 q 495 290 543 296 l 495 301 q 522 371 522 301 l 522 393 l 516 457 m 296 290 l 328 290 q 339 264 339 290 l 355 264 l 355 253 q 285 279 285 258 l 296 290 m 495 253 l 500 253 q 554 145 554 253 l 554 108 q 522 5 554 30 l 495 5 q 532 134 532 51 q 495 248 532 205 l 495 253 z "},"F":{"ha":557,"x_min":0,"x_max":542,"o":"m 47 689 l 74 689 l 74 678 q 26 389 35 678 q 53 37 26 165 q 126 11 99 11 l 126 0 l 105 0 q 0 121 0 0 l 0 142 l 11 395 l 5 557 q 47 689 18 689 m 510 684 q 531 610 531 684 l 531 584 q 510 494 531 494 l 489 494 q 505 600 505 547 l 494 678 l 500 684 l 510 684 m 252 668 l 300 668 l 468 663 l 479 594 q 458 521 479 521 l 437 515 l 353 521 l 336 521 q 258 494 258 515 l 258 484 q 326 426 258 433 l 473 431 l 484 389 l 484 368 q 437 321 484 321 l 273 321 q 252 252 258 321 l 263 90 q 205 32 251 32 l 163 32 q 68 100 68 32 l 53 395 q 105 657 53 657 l 252 668 m 294 489 l 305 489 q 353 463 336 463 l 353 452 l 336 452 q 284 479 296 452 l 294 489 m 500 458 l 521 458 q 542 384 535 458 q 500 294 542 294 l 489 294 l 489 305 q 510 368 510 305 l 510 389 l 500 458 m 294 294 l 305 294 l 311 290 l 315 290 l 305 216 l 305 84 q 258 16 305 16 l 258 21 q 290 100 290 56 l 279 258 q 294 294 284 294 z "},"G":{"ha":577,"x_min":0,"x_max":568,"o":"m 135 709 l 135 698 q 22 492 22 667 l 33 227 l 33 162 l 27 130 q 130 22 27 60 l 130 11 q 5 189 24 11 l 0 509 q 135 709 0 709 m 492 692 l 498 692 q 541 595 541 692 l 547 552 q 525 422 541 473 q 568 189 561 422 l 568 168 q 503 0 568 0 l 449 0 l 449 11 l 476 11 q 525 60 525 11 q 541 168 541 93 l 541 227 q 487 406 541 406 q 433 422 433 414 l 444 449 l 509 433 l 509 438 l 519 568 l 519 574 q 492 682 519 641 l 492 692 m 249 687 q 487 622 487 687 l 492 563 q 476 471 492 471 q 336 503 396 503 l 309 503 q 271 422 271 503 l 271 389 q 309 260 271 260 l 400 243 q 481 298 481 243 l 481 314 q 395 352 481 334 l 395 373 q 427 389 395 382 q 509 309 509 389 l 514 205 l 514 200 q 471 38 514 38 l 265 27 q 60 124 60 39 l 65 216 l 49 492 q 157 676 49 654 l 249 687 m 314 476 l 325 476 l 325 400 l 357 411 l 384 411 l 384 406 q 362 352 362 380 q 449 309 362 319 l 454 303 l 454 298 l 433 276 l 368 276 q 303 325 303 276 l 298 389 q 314 476 301 476 m 352 476 l 433 460 l 433 449 l 427 449 l 352 465 l 352 476 z "},"H":{"ha":612,"x_min":0,"x_max":608,"o":"m 240 694 l 315 694 q 342 683 342 692 l 331 614 l 331 486 l 320 475 l 283 475 q 267 523 270 475 l 272 619 q 240 683 272 683 l 240 694 m 560 694 q 603 571 603 659 l 603 545 l 608 165 q 534 5 608 5 l 534 16 q 576 160 576 16 l 576 555 q 545 688 576 607 l 550 694 l 560 694 m 37 683 l 54 683 q 26 545 26 610 l 26 160 q 85 5 26 59 l 85 0 q 21 43 21 0 q 0 149 7 49 l 5 347 l 0 539 q 37 683 12 683 m 144 667 q 240 651 240 667 l 240 523 q 299 443 240 443 q 352 465 352 446 l 363 523 l 357 625 q 395 662 357 662 l 437 667 q 539 625 539 667 l 550 534 l 550 192 q 512 32 550 32 l 454 26 l 427 26 q 363 64 363 26 l 357 102 l 363 229 q 326 256 355 256 l 267 256 q 240 176 240 243 l 240 43 q 155 16 240 26 q 54 182 54 16 l 54 528 q 106 667 54 667 l 144 667 m 283 229 l 320 229 l 336 214 l 331 160 l 331 102 q 352 11 331 39 l 352 5 l 309 21 l 262 5 l 262 11 l 272 75 l 267 186 q 283 229 270 229 z "},"I":{"ha":328,"x_min":14,"x_max":309,"o":"m 60 679 l 92 679 l 92 669 q 45 539 45 669 l 45 176 q 86 21 45 21 l 86 10 l 60 10 q 19 140 19 29 l 19 218 l 14 549 q 60 679 24 665 m 231 679 l 262 679 q 304 555 304 644 l 304 534 l 309 104 q 205 0 309 0 l 205 10 q 278 151 278 10 l 278 275 l 273 337 l 278 399 l 278 524 q 231 669 269 669 l 231 679 m 153 653 q 237 616 237 653 q 252 524 252 582 l 247 326 l 252 151 q 205 36 252 36 l 159 31 q 76 104 76 31 l 71 202 l 76 337 l 71 492 l 71 508 q 112 648 71 648 l 153 653 z "},"J":{"ha":572,"x_min":0,"x_max":550,"o":"m 288 689 l 288 678 q 245 566 257 678 l 262 331 q 224 273 262 273 l 235 444 l 230 652 q 288 689 244 689 m 486 689 q 545 630 545 689 l 550 539 l 550 182 q 427 0 550 0 l 427 11 q 529 214 529 43 l 529 539 q 486 678 529 678 l 486 689 m 353 673 q 496 609 496 673 l 502 545 l 496 368 l 502 219 q 347 22 502 22 l 193 22 q 54 85 54 22 l 48 139 q 85 278 48 271 q 214 245 177 245 l 230 245 q 283 299 283 245 l 288 336 l 273 566 q 353 673 273 673 m 37 315 l 54 315 q 22 134 22 222 q 48 16 22 73 l 43 16 q 0 182 0 16 q 37 315 9 315 m 75 315 l 91 315 l 214 283 l 214 273 l 208 273 l 75 304 l 75 315 z "},"K":{"ha":617,"x_min":0,"x_max":602,"o":"m 304 705 l 353 705 l 353 694 q 320 613 320 694 l 326 564 l 326 515 q 309 472 326 475 l 271 472 l 260 483 l 260 597 l 250 700 l 304 705 m 38 694 l 54 694 q 22 521 31 643 l 27 380 l 22 163 q 60 11 22 104 l 38 11 q 0 168 11 11 l 5 358 l 0 559 q 38 694 14 694 m 570 684 l 581 684 q 602 629 602 678 q 532 369 602 570 l 505 369 q 570 608 555 513 l 570 684 m 163 678 q 228 651 228 678 l 233 597 l 228 477 q 266 445 228 445 l 342 445 l 353 521 l 353 662 q 445 678 353 678 q 543 651 543 671 l 543 624 q 477 391 543 551 l 412 391 l 391 369 l 391 342 q 445 304 391 304 l 477 304 q 553 54 494 304 q 467 27 532 27 q 353 43 353 27 l 353 190 q 309 260 353 260 l 288 260 q 233 212 233 260 l 228 179 l 233 65 q 184 27 233 27 l 168 27 q 71 65 71 27 q 54 146 58 65 l 54 537 q 103 673 54 673 l 163 678 m 429 363 l 450 363 l 461 336 l 456 331 l 434 331 l 418 347 l 418 353 l 429 363 m 526 326 q 602 98 543 326 l 602 54 q 575 0 602 26 l 537 0 l 537 11 q 586 49 566 11 l 510 320 l 515 326 l 526 326 m 277 233 l 309 233 q 326 190 326 230 l 326 179 l 320 81 q 347 11 320 11 l 347 0 l 239 0 l 239 11 q 260 76 260 11 l 260 217 l 277 233 z "},"L":{"ha":562,"x_min":0,"x_max":555,"o":"m 73 684 l 73 679 q 41 653 58 653 l 47 602 l 26 223 q 151 10 26 37 l 161 10 l 161 0 q 0 202 0 0 l 26 565 l 16 663 l 73 684 m 275 679 l 300 679 q 332 560 320 679 l 327 384 l 327 285 l 337 285 l 477 311 l 477 300 l 467 300 l 347 269 l 311 269 l 300 280 l 296 353 l 300 534 q 275 674 300 640 l 275 679 m 94 659 l 218 659 q 269 596 269 659 l 275 539 l 269 347 q 306 243 269 243 l 353 243 l 472 275 l 477 275 q 503 171 503 275 l 503 161 q 467 47 503 47 l 233 26 q 62 135 85 26 l 52 243 l 73 612 l 73 633 l 94 659 m 498 311 l 508 311 q 549 218 549 311 l 555 151 l 555 119 q 518 16 555 40 l 503 16 q 529 151 529 87 l 529 192 q 498 306 529 264 l 498 311 z "},"M":{"ha":850,"x_min":0,"x_max":861,"o":"m 531 686 l 551 686 l 551 675 l 531 675 l 531 686 m 232 680 l 232 670 q 170 593 170 670 q 26 5 26 140 l 10 5 l 0 16 q 129 567 0 139 q 191 675 162 675 l 232 680 m 330 680 l 351 680 q 412 623 412 675 l 438 623 q 505 675 446 675 q 443 505 481 675 l 438 500 q 387 639 401 500 q 330 670 387 654 l 330 680 m 654 675 l 675 675 q 804 289 708 675 q 861 36 861 137 l 861 16 l 850 5 l 809 5 l 809 16 q 835 31 835 19 q 686 597 769 378 q 654 675 678 597 m 289 654 q 376 551 376 654 q 438 474 382 474 l 454 474 q 500 623 476 509 q 597 654 500 654 q 649 603 649 654 q 799 87 732 414 l 804 36 l 726 26 l 701 26 q 613 52 613 26 q 562 242 575 242 l 520 248 q 469 212 469 248 l 469 206 q 505 36 469 165 q 438 26 481 26 l 392 26 l 361 36 l 397 216 q 376 242 387 240 l 361 242 l 315 237 l 299 242 q 242 31 274 195 l 237 26 l 109 26 q 52 36 72 26 q 212 639 93 275 l 289 654 m 361 216 l 366 201 l 335 20 l 335 10 l 345 10 l 345 0 l 258 0 q 309 206 278 56 l 361 216 m 541 216 q 593 16 555 216 l 603 5 l 603 0 l 526 0 l 526 10 l 536 10 l 494 212 l 500 216 l 541 216 z "},"N":{"ha":597,"x_min":0,"x_max":585,"o":"m 486 689 l 507 689 q 579 559 579 689 l 579 428 l 574 339 q 585 104 585 261 q 548 5 572 5 l 532 5 l 532 10 q 559 172 559 79 l 553 334 l 559 517 q 491 679 559 679 l 486 679 l 486 689 m 62 684 l 89 684 l 89 673 q 16 491 29 673 l 31 182 l 31 99 q 62 5 31 39 l 37 5 q 0 319 0 5 q 31 673 0 673 l 62 684 m 308 673 l 370 507 l 370 475 l 366 470 l 366 465 q 250 642 285 465 q 235 668 239 642 l 256 668 l 308 673 m 141 663 q 235 611 216 663 q 376 439 257 439 l 381 439 q 397 470 397 444 l 397 501 q 345 642 397 524 l 345 652 l 407 658 l 449 658 q 527 585 527 658 l 532 522 l 527 329 l 532 151 q 475 26 532 26 l 444 26 q 370 68 370 26 q 245 256 312 256 q 188 235 188 247 l 188 230 q 250 42 188 180 l 250 26 l 141 26 q 58 78 58 26 l 58 120 l 62 193 l 42 491 q 141 663 42 663 m 245 224 q 345 52 298 224 q 387 10 369 10 l 387 0 l 381 0 l 329 21 l 287 5 q 214 209 276 56 l 214 219 l 219 224 l 245 224 z "},"O":{"ha":612,"x_min":0,"x_max":606,"o":"m 318 699 l 323 699 q 553 647 525 699 q 606 345 606 530 q 475 0 606 0 l 475 10 q 569 172 551 10 l 574 486 q 407 684 574 684 l 323 689 l 318 689 l 318 699 m 146 689 l 146 678 q 31 490 47 678 l 31 486 q 83 42 31 42 l 110 10 l 104 10 q 10 172 24 10 l 0 428 q 58 652 6 652 q 146 689 102 689 m 313 663 q 532 574 532 663 q 548 480 539 574 l 543 235 l 543 198 q 480 37 543 71 q 313 21 420 21 l 277 21 q 89 83 89 21 q 58 480 58 83 q 214 663 58 663 l 313 663 m 250 486 l 240 313 q 271 203 250 203 l 345 203 l 355 277 l 355 465 q 308 486 348 486 l 250 486 m 287 459 l 318 459 l 329 449 l 329 266 q 313 235 329 239 l 287 235 q 266 323 273 235 q 287 459 273 459 z "},"P":{"ha":567,"x_min":0,"x_max":572,"o":"m 37 685 l 54 685 q 22 513 31 631 l 26 428 l 26 348 l 22 176 q 70 5 22 70 l 70 0 l 64 0 q 0 139 0 14 l 5 353 l 0 541 q 37 685 9 685 m 492 685 l 498 685 q 567 631 549 663 l 567 546 l 556 546 l 556 551 q 492 674 556 645 l 492 685 m 353 674 l 385 674 q 524 594 503 674 l 535 498 q 439 278 521 278 l 417 273 l 321 278 l 300 278 q 278 214 278 278 l 278 107 q 219 26 278 26 l 113 26 q 54 150 54 26 l 54 541 q 91 663 56 663 l 353 674 m 230 450 q 252 412 243 412 l 305 412 q 348 428 345 412 l 348 503 l 300 513 l 289 513 q 230 450 237 513 m 562 498 l 572 498 l 572 385 q 476 252 572 252 l 476 257 q 562 498 562 326 m 283 487 l 310 487 l 321 476 l 321 450 l 310 439 l 273 439 l 262 450 l 262 465 l 283 487 m 321 252 l 342 252 q 305 11 333 11 l 283 5 l 278 5 l 278 11 q 305 85 305 50 l 305 235 l 321 252 z "},"Q":{"ha":607,"x_min":0,"x_max":601,"o":"m 179 699 l 179 688 q 26 567 50 688 l 11 345 q 84 35 20 35 q 190 3 105 16 l 148 -139 l 132 -139 l 126 -134 l 121 -134 l 158 -7 l 153 -7 q 0 230 0 -7 l 0 482 q 63 677 0 652 q 179 699 97 699 m 453 699 q 585 588 543 699 q 601 345 601 499 l 601 309 q 553 50 601 82 q 490 8 530 8 l 490 14 q 580 345 580 92 q 464 688 580 647 l 453 688 l 453 699 m 300 672 l 379 672 q 516 598 496 672 q 548 377 548 497 l 548 298 q 458 35 534 35 q 342 19 418 19 l 327 19 q 58 124 58 19 q 42 303 42 201 l 42 398 q 95 641 42 606 q 300 672 170 672 m 237 409 l 242 251 l 242 230 q 290 209 242 214 l 327 214 l 342 209 l 353 251 l 348 451 l 348 477 l 295 488 q 237 409 246 488 m 300 461 q 321 446 321 454 l 321 435 l 316 435 l 327 261 q 311 240 319 240 l 279 240 l 274 245 l 269 245 l 274 251 l 263 393 q 300 461 263 461 m 427 -2 q 469 -139 444 -2 l 464 -144 l 458 -144 q 411 -7 443 -144 l 416 -2 l 427 -2 m 221 -23 l 374 -23 q 411 -113 388 -23 l 411 -118 l 184 -118 l 184 -113 q 221 -23 202 -23 z "},"R":{"ha":592,"x_min":0,"x_max":587,"o":"m 42 682 l 47 682 q 58 666 58 682 q 21 503 21 590 l 26 246 l 26 142 q 63 16 31 16 l 63 5 q 5 131 5 5 l 0 168 l 5 341 l 0 551 q 42 682 0 635 m 430 682 l 435 682 q 577 540 577 659 l 582 509 q 535 351 582 402 q 587 157 587 296 q 540 0 578 14 l 535 5 l 530 5 q 561 136 561 72 l 561 157 l 566 163 l 561 168 l 561 194 q 509 351 561 283 q 561 509 561 409 q 441 671 561 626 l 430 671 l 430 682 m 294 666 q 535 503 535 666 q 472 351 535 414 q 535 189 535 287 l 535 142 q 477 26 535 26 l 420 26 q 341 68 341 26 l 341 236 q 299 257 341 250 l 294 257 q 231 241 231 257 l 225 215 l 231 115 q 168 21 231 21 l 136 21 q 52 121 52 21 l 52 519 q 89 656 52 625 l 294 666 m 231 482 l 231 430 q 294 414 231 418 q 341 456 341 416 l 341 493 q 294 514 334 514 l 246 514 q 231 482 231 509 m 288 488 l 304 488 l 315 477 l 315 456 l 304 446 l 267 446 l 257 456 l 257 472 q 288 488 262 488 m 267 231 l 299 231 l 315 215 l 315 194 l 309 121 q 351 10 309 19 l 351 0 l 346 0 q 299 52 304 0 q 231 5 264 5 l 231 10 q 257 115 257 50 l 257 220 l 267 231 z "},"S":{"ha":562,"x_min":0,"x_max":568,"o":"m 216 699 l 216 688 l 205 688 q 16 441 16 688 q 116 289 32 289 q 247 231 247 267 l 231 221 l 216 221 q 63 258 187 221 l 74 289 q 0 463 18 289 l 0 473 q 105 688 0 630 l 216 699 m 494 684 l 515 684 q 547 625 547 667 l 547 441 l 536 431 l 526 431 l 520 436 l 515 436 l 536 552 q 494 678 536 632 l 494 684 m 258 667 l 447 663 l 468 663 q 505 573 505 642 l 505 531 q 489 463 505 463 q 352 499 393 499 l 326 499 l 268 484 l 268 473 q 426 384 287 384 q 520 279 520 369 l 520 221 q 394 26 500 26 l 352 21 l 331 21 l 90 42 l 74 37 q 58 126 58 68 q 79 226 58 226 q 210 195 179 195 l 221 195 l 279 210 q 121 315 279 298 q 47 426 47 315 l 47 473 q 147 652 47 617 l 258 667 m 315 473 l 347 473 q 499 431 385 473 l 505 426 l 505 420 l 499 405 q 568 226 568 361 q 463 5 547 5 l 452 5 l 452 16 q 552 247 552 84 q 478 399 552 356 q 300 463 300 424 l 315 473 m 42 263 l 42 258 l 32 121 l 32 116 q 53 5 32 77 l 47 5 q 11 95 11 5 l 16 252 l 42 263 m 121 11 l 179 11 l 179 0 l 121 0 l 121 11 z "},"T":{"ha":592,"x_min":0,"x_max":599,"o":"m 397 699 l 461 699 q 599 599 599 699 l 599 588 q 556 418 586 418 l 541 413 l 541 424 q 572 541 572 469 l 572 567 q 524 684 572 652 l 408 684 l 397 694 l 397 699 m 64 688 l 64 684 q 21 567 21 643 l 42 418 l 26 418 q 0 572 0 430 q 58 688 0 688 l 64 688 m 180 678 l 471 657 l 514 657 q 545 551 545 631 q 519 445 545 477 q 424 466 465 466 l 418 466 q 397 371 406 466 l 403 175 l 403 138 q 339 26 403 26 l 270 26 q 196 85 196 26 q 185 170 185 115 l 191 424 q 159 461 191 461 l 74 450 q 47 577 56 450 q 175 678 47 678 l 180 678 m 439 439 l 503 424 l 503 413 l 450 413 l 450 90 q 397 5 450 5 l 392 5 q 434 159 434 66 l 429 260 l 429 424 l 439 439 m 154 434 l 164 408 l 159 243 l 159 164 q 207 11 159 41 l 212 11 l 212 0 q 138 117 138 0 l 138 286 l 143 345 q 111 413 143 413 l 85 413 l 85 424 l 154 434 z "},"U":{"ha":572,"x_min":0,"x_max":552,"o":"m 230 675 l 327 675 l 327 665 q 307 568 307 665 l 312 296 q 286 256 312 270 l 266 256 q 245 353 250 256 l 250 572 q 230 665 247 665 l 230 675 m 41 669 l 41 665 l 31 649 l 36 562 l 36 526 l 16 225 q 113 26 16 63 l 179 10 l 179 0 q 36 56 62 0 q 0 276 0 136 l 20 665 l 26 669 l 41 669 m 532 665 q 547 634 547 659 l 552 526 l 547 419 l 552 199 q 470 16 541 16 l 455 10 l 455 16 q 536 245 536 71 l 516 613 q 532 665 520 665 m 72 649 l 163 649 q 220 634 220 649 l 225 562 l 220 378 l 220 363 q 256 230 220 230 l 281 225 q 337 302 337 240 l 337 409 l 332 572 q 353 644 332 644 l 419 649 l 435 649 q 491 629 491 649 l 511 256 q 429 36 499 36 q 327 20 392 20 l 296 20 q 56 133 56 33 q 46 194 47 133 l 46 235 l 66 542 l 56 639 l 72 649 z "},"V":{"ha":667,"x_min":0,"x_max":662,"o":"m 217 688 l 228 688 l 228 677 l 217 677 l 217 688 m 598 683 q 662 614 662 683 l 662 598 q 551 58 662 519 q 513 5 529 11 l 498 5 l 498 11 q 630 593 562 157 l 630 630 q 598 673 630 673 l 598 683 m 42 677 l 47 677 l 47 673 q 21 614 21 647 q 180 0 122 100 l 175 0 q 53 345 106 0 q 0 593 0 505 q 42 677 0 677 m 296 677 l 334 673 l 371 677 l 366 562 l 366 291 q 317 243 366 243 l 313 243 l 302 254 l 302 264 q 286 673 302 534 l 291 677 l 296 677 m 122 662 q 264 635 264 655 l 281 228 l 313 217 l 376 217 q 392 313 392 217 l 392 583 q 418 651 392 651 l 466 656 l 540 656 q 604 630 604 656 q 482 37 604 476 l 392 26 l 275 26 q 185 53 185 26 q 47 625 122 226 q 122 662 58 662 m 477 11 l 487 11 l 487 0 l 477 0 l 477 11 z "},"W":{"ha":858,"x_min":0,"x_max":836,"o":"m 717 681 l 748 681 q 836 650 809 681 q 701 20 836 511 l 671 10 l 671 16 q 800 572 724 139 l 804 624 q 753 671 804 671 l 717 671 l 717 681 m 232 671 l 320 671 l 320 660 l 309 660 l 351 469 l 340 459 l 330 459 q 253 634 273 459 q 232 671 232 654 m 41 665 l 41 655 l 31 655 l 31 650 q 165 20 31 485 l 186 16 l 186 5 l 160 5 q 67 283 120 5 q 0 614 0 532 q 41 665 0 665 m 521 660 l 593 660 l 593 655 l 542 479 q 505 459 528 459 l 485 475 l 485 479 l 521 650 l 521 660 m 98 645 l 165 645 q 232 598 232 645 q 340 428 249 428 l 346 428 q 376 459 376 428 l 376 475 q 340 634 376 514 l 356 645 l 475 645 q 490 624 490 645 l 454 475 q 515 433 454 433 q 608 629 576 433 q 655 645 628 645 l 758 645 l 774 629 l 774 598 q 660 62 774 494 q 547 31 660 31 l 542 31 q 469 155 490 31 q 438 201 469 201 q 423 222 423 201 q 340 46 380 222 q 268 31 321 31 l 242 31 q 176 77 176 31 q 57 634 57 513 l 98 645 m 412 176 l 428 176 q 469 52 441 176 l 495 16 l 495 5 q 428 77 448 5 l 408 77 q 356 5 395 5 l 346 5 l 346 10 q 397 160 373 32 l 412 176 m 505 10 l 521 10 l 521 0 l 505 0 l 505 10 z "},"X":{"ha":671,"x_min":0,"x_max":677,"o":"m 549 699 q 667 618 667 699 q 581 350 667 515 q 677 16 677 155 l 661 0 l 640 0 l 640 11 l 656 16 q 565 328 656 92 l 532 339 l 490 339 l 479 350 l 490 360 l 538 360 q 591 435 591 367 q 635 656 635 564 q 559 688 597 688 l 549 688 l 549 699 m 92 688 l 92 677 q 43 640 53 677 q 108 371 43 545 l 140 360 l 183 360 l 194 350 l 194 345 l 183 334 l 113 334 q 33 16 33 108 l 33 0 q 0 16 0 5 q 97 345 0 140 q 22 602 22 472 l 22 661 q 92 688 22 676 m 296 683 l 350 677 l 355 677 l 382 683 l 366 602 l 371 479 l 366 473 l 317 473 q 301 527 301 473 l 307 602 l 296 683 m 516 667 q 602 640 602 660 l 602 635 q 549 387 602 532 l 500 387 q 452 350 452 387 q 490 312 452 312 l 532 312 q 608 113 555 312 q 624 33 624 65 q 554 22 600 22 l 490 22 q 404 38 404 22 l 404 226 q 350 253 391 253 l 301 253 q 279 172 287 253 l 285 86 q 264 22 281 22 l 102 22 q 59 38 62 22 q 134 307 79 168 l 140 307 l 145 301 l 151 301 q 226 334 226 310 l 226 366 q 189 387 217 387 l 134 387 q 75 586 99 450 l 70 640 q 151 661 105 661 l 242 661 q 274 646 274 659 l 274 527 l 285 446 l 393 446 l 398 484 l 398 490 l 393 613 q 446 661 393 661 l 516 667 m 323 226 l 345 226 q 376 204 376 226 l 371 92 l 382 0 l 376 0 q 350 11 350 0 l 301 0 l 296 5 q 312 92 312 40 l 312 215 l 323 226 z "},"Y":{"ha":707,"x_min":0,"x_max":695,"o":"m 41 674 l 41 664 l 16 653 q 151 270 109 357 l 151 264 l 145 264 q 88 363 102 264 q 0 653 0 566 l 0 664 l 41 674 m 384 674 l 378 596 l 378 456 q 327 441 378 444 l 316 456 l 316 607 q 306 664 316 644 l 311 669 l 316 669 l 337 664 l 384 674 m 653 674 q 695 653 695 665 q 570 270 695 568 q 503 249 512 260 l 498 208 l 503 135 l 503 62 q 410 0 503 0 l 384 0 l 384 10 l 404 10 q 482 135 482 10 l 482 249 q 555 280 482 259 q 669 659 669 606 l 653 664 l 653 674 m 125 653 l 151 653 q 286 637 286 653 l 290 607 l 290 596 l 286 492 q 337 415 286 415 l 404 425 l 404 633 q 529 653 404 653 l 565 653 q 637 633 637 653 q 513 290 545 290 q 451 243 451 290 l 456 208 l 456 155 q 399 37 456 37 l 332 31 q 243 98 243 31 l 243 212 q 182 290 243 290 q 98 492 154 290 q 52 637 52 611 l 52 643 l 125 653 m 176 264 l 197 264 q 218 202 218 264 l 218 109 q 249 26 218 26 l 249 16 q 192 94 192 16 l 192 223 q 176 259 192 240 l 176 264 z "},"Z":{"ha":582,"x_min":0,"x_max":562,"o":"m 74 689 l 74 678 q 43 562 43 633 l 43 509 l 64 408 l 47 408 q 16 562 16 421 q 74 689 16 689 m 503 689 l 509 689 q 562 572 562 689 q 514 403 562 437 q 408 292 449 349 l 482 302 l 482 292 l 360 271 l 360 275 q 541 546 541 456 l 541 567 q 503 689 530 635 m 329 673 q 498 631 498 673 q 509 572 509 610 l 509 535 q 318 271 509 464 l 318 265 q 366 244 325 244 l 498 271 l 509 239 l 509 143 q 456 43 509 43 l 271 32 l 217 32 q 64 74 64 32 l 53 143 q 217 392 53 231 q 249 456 249 435 l 212 461 l 85 440 q 69 525 69 474 l 69 557 q 132 668 69 668 l 329 673 m 201 429 l 201 418 q 26 159 26 238 l 26 132 q 90 21 26 21 q 143 11 90 11 l 143 0 q 11 64 11 0 q 0 143 0 90 q 106 345 0 292 l 143 387 l 143 397 q 117 408 143 408 l 117 418 l 201 429 m 519 302 l 541 302 q 562 164 559 302 l 562 154 q 498 11 562 11 l 488 11 l 488 21 q 541 175 541 33 q 519 292 536 292 l 519 302 z "},"[":{"ha":386,"x_min":0,"x_max":0,"o":""},"\\":{"ha":386,"x_min":0,"x_max":0,"o":""},"]":{"ha":386,"x_min":0,"x_max":0,"o":""},"^":{"ha":652,"x_min":0,"x_max":0,"o":""},"_":{"ha":772,"x_min":0,"x_max":0,"o":""},"`":{"ha":463,"x_min":0,"x_max":0,"o":""},"a":{"ha":682,"x_min":0,"x_max":682,"o":"m 372 697 l 382 697 l 382 687 l 372 687 l 372 697 m 409 697 l 414 697 q 540 624 525 697 l 650 210 q 682 31 682 124 l 682 26 q 597 0 677 7 l 597 10 q 655 37 653 10 q 456 676 524 676 l 409 687 l 409 697 m 320 692 l 336 692 l 336 682 l 320 682 l 320 692 m 278 687 l 299 687 l 299 676 l 278 676 l 278 687 m 184 676 l 199 676 l 205 671 l 210 671 q 21 37 124 490 l 52 16 l 52 5 l 47 5 q 0 26 7 5 l 0 42 q 157 645 0 182 l 184 676 m 399 661 l 409 661 q 519 488 487 661 q 624 47 624 104 l 624 42 q 503 26 566 26 q 404 47 404 29 l 404 194 q 388 278 404 278 l 288 278 l 278 199 l 278 163 l 283 94 q 246 31 283 31 l 131 26 q 52 47 52 33 q 236 650 163 545 l 257 650 l 399 661 m 278 414 q 378 393 289 399 q 399 446 399 415 l 399 488 l 351 498 l 304 498 q 278 414 285 498 m 320 472 l 357 472 l 372 456 l 372 435 l 361 425 l 320 425 l 309 435 l 309 461 l 320 472 m 320 252 l 361 252 q 378 194 378 252 l 378 26 q 399 16 378 16 l 399 5 l 351 16 l 299 5 l 309 94 l 304 210 q 320 252 309 252 z "},"b":{"ha":597,"x_min":0,"x_max":582,"o":"m 159 699 l 159 688 q 37 629 37 688 l 26 529 l 26 497 l 21 111 q 68 16 37 16 l 68 5 q 5 85 5 5 l 5 259 l 0 571 q 95 699 0 699 l 159 699 m 439 688 q 576 550 576 688 l 576 476 q 529 355 576 423 q 582 222 582 243 l 582 159 q 444 0 582 28 l 444 11 q 555 159 555 52 l 555 191 q 487 344 555 286 q 550 492 550 411 l 550 529 q 471 672 550 633 l 439 677 l 439 688 m 291 667 q 518 566 518 667 l 524 524 l 524 497 q 450 359 524 395 q 503 286 450 330 q 529 185 529 253 l 529 180 q 412 32 513 32 q 296 21 412 21 l 222 21 q 53 85 53 21 l 47 121 l 53 429 l 53 497 q 85 650 53 650 q 291 667 194 667 m 227 465 l 243 412 l 307 412 q 349 450 349 412 l 349 465 q 291 518 349 518 q 227 465 248 518 m 307 492 q 323 455 323 473 l 323 450 l 312 439 l 270 439 l 259 450 l 259 471 q 307 492 267 492 m 227 222 q 280 180 227 180 l 296 180 q 349 217 349 180 q 323 275 349 275 l 296 280 l 291 280 q 227 222 227 277 m 291 254 l 307 254 q 323 222 323 249 l 307 206 l 270 206 q 254 227 262 206 q 291 254 261 254 z "},"c":{"ha":587,"x_min":0,"x_max":544,"o":"m 425 694 l 430 694 q 544 580 544 694 l 544 559 q 503 409 526 409 l 487 409 l 476 419 q 513 538 513 458 l 513 570 q 440 684 513 684 l 425 684 l 425 694 m 109 684 l 109 673 q 31 517 48 673 l 31 145 q 181 16 31 16 l 181 5 l 176 5 q 26 57 55 5 q 5 161 5 113 l 5 269 l 0 554 q 104 684 12 684 l 109 684 m 165 663 l 336 658 l 393 663 q 487 580 487 663 l 487 549 q 456 446 487 463 q 305 471 396 471 l 290 471 l 264 466 l 264 238 l 326 228 q 466 254 361 228 q 487 165 487 214 q 450 57 487 57 q 305 36 376 36 l 233 36 q 57 140 57 36 l 57 165 l 62 332 l 57 507 q 165 663 57 663 m 300 446 l 311 446 l 321 435 l 311 393 l 311 264 l 321 264 l 460 290 l 460 279 q 321 254 356 254 l 305 254 l 290 269 l 290 435 l 300 446 m 357 440 l 460 419 l 460 409 l 357 430 l 357 440 m 471 295 l 481 295 q 544 140 544 295 l 544 134 q 446 10 544 10 l 295 0 l 295 10 l 316 10 q 507 73 507 22 l 513 165 q 471 290 513 252 l 471 295 m 191 10 l 243 10 l 243 0 l 191 0 l 191 10 z "},"d":{"ha":637,"x_min":0,"x_max":627,"o":"m 193 707 l 193 696 q 54 669 54 696 q 32 562 32 616 l 32 172 q 59 26 32 76 l 54 22 l 37 22 q 5 166 9 34 l 5 193 l 0 547 q 75 702 0 702 l 193 707 m 503 702 l 509 702 q 616 541 616 681 l 627 342 q 573 48 627 48 q 503 16 546 16 q 600 235 600 66 l 605 300 q 514 686 590 686 l 509 691 l 503 691 l 503 702 m 380 686 q 547 578 547 686 q 573 342 573 485 l 573 246 q 514 59 573 96 l 482 37 l 460 37 l 209 32 q 70 75 70 32 l 59 182 l 59 541 q 107 664 59 664 l 380 686 m 252 412 l 257 235 l 252 231 q 300 214 272 214 l 321 214 l 370 225 l 370 477 q 311 498 370 490 q 252 412 259 498 m 316 471 q 342 455 342 465 l 342 252 l 332 241 l 294 241 q 284 257 284 241 l 279 412 q 316 471 279 464 m 342 11 l 439 11 l 439 0 l 342 0 l 342 11 z "},"e":{"ha":572,"x_min":0,"x_max":554,"o":"m 48 699 l 102 699 l 102 688 q 48 656 48 688 q 22 323 22 530 q 81 11 22 11 l 92 11 l 92 0 q 22 27 38 0 q 0 151 5 79 l 5 355 l 0 549 q 48 699 9 686 m 500 694 l 522 694 q 538 635 538 694 l 538 570 q 522 500 538 500 l 500 500 l 500 505 q 516 597 516 556 l 516 613 l 500 694 m 264 677 q 484 656 484 674 l 490 591 q 446 522 490 522 l 414 522 l 360 527 l 258 505 l 258 495 q 339 425 258 425 l 463 430 l 484 430 l 495 420 l 495 366 q 463 323 495 323 l 420 317 l 274 323 q 258 279 258 300 q 334 226 258 233 l 441 231 q 505 123 505 231 q 452 33 505 33 l 258 22 q 75 59 75 22 q 48 328 48 177 q 86 661 58 657 l 264 677 m 301 490 l 312 490 l 345 468 l 345 457 l 323 457 q 290 473 295 457 l 290 479 l 301 490 m 516 457 l 527 457 l 543 441 l 543 404 l 549 376 l 543 345 l 543 312 q 495 290 543 296 l 495 301 q 522 371 522 301 l 522 393 l 516 457 m 296 290 l 328 290 q 339 264 339 290 l 355 264 l 355 253 q 285 279 285 258 l 296 290 m 495 253 l 500 253 q 554 145 554 253 l 554 108 q 522 5 554 30 l 495 5 q 532 134 532 51 q 495 248 532 205 l 495 253 z "},"f":{"ha":557,"x_min":0,"x_max":542,"o":"m 47 689 l 74 689 l 74 678 q 26 389 35 678 q 53 37 26 165 q 126 11 99 11 l 126 0 l 105 0 q 0 121 0 0 l 0 142 l 11 395 l 5 557 q 47 689 18 689 m 510 684 q 531 610 531 684 l 531 584 q 510 494 531 494 l 489 494 q 505 600 505 547 l 494 678 l 500 684 l 510 684 m 252 668 l 300 668 l 468 663 l 479 594 q 458 521 479 521 l 437 515 l 353 521 l 336 521 q 258 494 258 515 l 258 484 q 326 426 258 433 l 473 431 l 484 389 l 484 368 q 437 321 484 321 l 273 321 q 252 252 258 321 l 263 90 q 205 32 251 32 l 163 32 q 68 100 68 32 l 53 395 q 105 657 53 657 l 252 668 m 294 489 l 305 489 q 353 463 336 463 l 353 452 l 336 452 q 284 479 296 452 l 294 489 m 500 458 l 521 458 q 542 384 535 458 q 500 294 542 294 l 489 294 l 489 305 q 510 368 510 305 l 510 389 l 500 458 m 294 294 l 305 294 l 311 290 l 315 290 l 305 216 l 305 84 q 258 16 305 16 l 258 21 q 290 100 290 56 l 279 258 q 294 294 284 294 z "},"g":{"ha":577,"x_min":0,"x_max":568,"o":"m 135 709 l 135 698 q 22 492 22 667 l 33 227 l 33 162 l 27 130 q 130 22 27 60 l 130 11 q 5 189 24 11 l 0 509 q 135 709 0 709 m 492 692 l 498 692 q 541 595 541 692 l 547 552 q 525 422 541 473 q 568 189 561 422 l 568 168 q 503 0 568 0 l 449 0 l 449 11 l 476 11 q 525 60 525 11 q 541 168 541 93 l 541 227 q 487 406 541 406 q 433 422 433 414 l 444 449 l 509 433 l 509 438 l 519 568 l 519 574 q 492 682 519 641 l 492 692 m 249 687 q 487 622 487 687 l 492 563 q 476 471 492 471 q 336 503 396 503 l 309 503 q 271 422 271 503 l 271 389 q 309 260 271 260 l 400 243 q 481 298 481 243 l 481 314 q 395 352 481 334 l 395 373 q 427 389 395 382 q 509 309 509 389 l 514 205 l 514 200 q 471 38 514 38 l 265 27 q 60 124 60 39 l 65 216 l 49 492 q 157 676 49 654 l 249 687 m 314 476 l 325 476 l 325 400 l 357 411 l 384 411 l 384 406 q 362 352 362 380 q 449 309 362 319 l 454 303 l 454 298 l 433 276 l 368 276 q 303 325 303 276 l 298 389 q 314 476 301 476 m 352 476 l 433 460 l 433 449 l 427 449 l 352 465 l 352 476 z "},"h":{"ha":612,"x_min":0,"x_max":608,"o":"m 240 694 l 315 694 q 342 683 342 692 l 331 614 l 331 486 l 320 475 l 283 475 q 267 523 270 475 l 272 619 q 240 683 272 683 l 240 694 m 560 694 q 603 571 603 659 l 603 545 l 608 165 q 534 5 608 5 l 534 16 q 576 160 576 16 l 576 555 q 545 688 576 607 l 550 694 l 560 694 m 37 683 l 54 683 q 26 545 26 610 l 26 160 q 85 5 26 59 l 85 0 q 21 43 21 0 q 0 149 7 49 l 5 347 l 0 539 q 37 683 12 683 m 144 667 q 240 651 240 667 l 240 523 q 299 443 240 443 q 352 465 352 446 l 363 523 l 357 625 q 395 662 357 662 l 437 667 q 539 625 539 667 l 550 534 l 550 192 q 512 32 550 32 l 454 26 l 427 26 q 363 64 363 26 l 357 102 l 363 229 q 326 256 355 256 l 267 256 q 240 176 240 243 l 240 43 q 155 16 240 26 q 54 182 54 16 l 54 528 q 106 667 54 667 l 144 667 m 283 229 l 320 229 l 336 214 l 331 160 l 331 102 q 352 11 331 39 l 352 5 l 309 21 l 262 5 l 262 11 l 272 75 l 267 186 q 283 229 270 229 z "},"i":{"ha":328,"x_min":14,"x_max":309,"o":"m 60 679 l 92 679 l 92 669 q 45 539 45 669 l 45 176 q 86 21 45 21 l 86 10 l 60 10 q 19 140 19 29 l 19 218 l 14 549 q 60 679 24 665 m 231 679 l 262 679 q 304 555 304 644 l 304 534 l 309 104 q 205 0 309 0 l 205 10 q 278 151 278 10 l 278 275 l 273 337 l 278 399 l 278 524 q 231 669 269 669 l 231 679 m 153 653 q 237 616 237 653 q 252 524 252 582 l 247 326 l 252 151 q 205 36 252 36 l 159 31 q 76 104 76 31 l 71 202 l 76 337 l 71 492 l 71 508 q 112 648 71 648 l 153 653 z "},"j":{"ha":572,"x_min":0,"x_max":550,"o":"m 288 689 l 288 678 q 245 566 257 678 l 262 331 q 224 273 262 273 l 235 444 l 230 652 q 288 689 244 689 m 486 689 q 545 630 545 689 l 550 539 l 550 182 q 427 0 550 0 l 427 11 q 529 214 529 43 l 529 539 q 486 678 529 678 l 486 689 m 353 673 q 496 609 496 673 l 502 545 l 496 368 l 502 219 q 347 22 502 22 l 193 22 q 54 85 54 22 l 48 139 q 85 278 48 271 q 214 245 177 245 l 230 245 q 283 299 283 245 l 288 336 l 273 566 q 353 673 273 673 m 37 315 l 54 315 q 22 134 22 222 q 48 16 22 73 l 43 16 q 0 182 0 16 q 37 315 9 315 m 75 315 l 91 315 l 214 283 l 214 273 l 208 273 l 75 304 l 75 315 z "},"k":{"ha":617,"x_min":0,"x_max":602,"o":"m 304 705 l 353 705 l 353 694 q 320 613 320 694 l 326 564 l 326 515 q 309 472 326 475 l 271 472 l 260 483 l 260 597 l 250 700 l 304 705 m 38 694 l 54 694 q 22 521 31 643 l 27 380 l 22 163 q 60 11 22 104 l 38 11 q 0 168 11 11 l 5 358 l 0 559 q 38 694 14 694 m 570 684 l 581 684 q 602 629 602 678 q 532 369 602 570 l 505 369 q 570 608 555 513 l 570 684 m 163 678 q 228 651 228 678 l 233 597 l 228 477 q 266 445 228 445 l 342 445 l 353 521 l 353 662 q 445 678 353 678 q 543 651 543 671 l 543 624 q 477 391 543 551 l 412 391 l 391 369 l 391 342 q 445 304 391 304 l 477 304 q 553 54 494 304 q 467 27 532 27 q 353 43 353 27 l 353 190 q 309 260 353 260 l 288 260 q 233 212 233 260 l 228 179 l 233 65 q 184 27 233 27 l 168 27 q 71 65 71 27 q 54 146 58 65 l 54 537 q 103 673 54 673 l 163 678 m 429 363 l 450 363 l 461 336 l 456 331 l 434 331 l 418 347 l 418 353 l 429 363 m 526 326 q 602 98 543 326 l 602 54 q 575 0 602 26 l 537 0 l 537 11 q 586 49 566 11 l 510 320 l 515 326 l 526 326 m 277 233 l 309 233 q 326 190 326 230 l 326 179 l 320 81 q 347 11 320 11 l 347 0 l 239 0 l 239 11 q 260 76 260 11 l 260 217 l 277 233 z "},"l":{"ha":562,"x_min":0,"x_max":555,"o":"m 73 684 l 73 679 q 41 653 58 653 l 47 602 l 26 223 q 151 10 26 37 l 161 10 l 161 0 q 0 202 0 0 l 26 565 l 16 663 l 73 684 m 275 679 l 300 679 q 332 560 320 679 l 327 384 l 327 285 l 337 285 l 477 311 l 477 300 l 467 300 l 347 269 l 311 269 l 300 280 l 296 353 l 300 534 q 275 674 300 640 l 275 679 m 94 659 l 218 659 q 269 596 269 659 l 275 539 l 269 347 q 306 243 269 243 l 353 243 l 472 275 l 477 275 q 503 171 503 275 l 503 161 q 467 47 503 47 l 233 26 q 62 135 85 26 l 52 243 l 73 612 l 73 633 l 94 659 m 498 311 l 508 311 q 549 218 549 311 l 555 151 l 555 119 q 518 16 555 40 l 503 16 q 529 151 529 87 l 529 192 q 498 306 529 264 l 498 311 z "},"m":{"ha":850,"x_min":0,"x_max":861,"o":"m 531 686 l 551 686 l 551 675 l 531 675 l 531 686 m 232 680 l 232 670 q 170 593 170 670 q 26 5 26 140 l 10 5 l 0 16 q 129 567 0 139 q 191 675 162 675 l 232 680 m 330 680 l 351 680 q 412 623 412 675 l 438 623 q 505 675 446 675 q 443 505 481 675 l 438 500 q 387 639 401 500 q 330 670 387 654 l 330 680 m 654 675 l 675 675 q 804 289 708 675 q 861 36 861 137 l 861 16 l 850 5 l 809 5 l 809 16 q 835 31 835 19 q 686 597 769 378 q 654 675 678 597 m 289 654 q 376 551 376 654 q 438 474 382 474 l 454 474 q 500 623 476 509 q 597 654 500 654 q 649 603 649 654 q 799 87 732 414 l 804 36 l 726 26 l 701 26 q 613 52 613 26 q 562 242 575 242 l 520 248 q 469 212 469 248 l 469 206 q 505 36 469 165 q 438 26 481 26 l 392 26 l 361 36 l 397 216 q 376 242 387 240 l 361 242 l 315 237 l 299 242 q 242 31 274 195 l 237 26 l 109 26 q 52 36 72 26 q 212 639 93 275 l 289 654 m 361 216 l 366 201 l 335 20 l 335 10 l 345 10 l 345 0 l 258 0 q 309 206 278 56 l 361 216 m 541 216 q 593 16 555 216 l 603 5 l 603 0 l 526 0 l 526 10 l 536 10 l 494 212 l 500 216 l 541 216 z "},"n":{"ha":597,"x_min":0,"x_max":585,"o":"m 486 689 l 507 689 q 579 559 579 689 l 579 428 l 574 339 q 585 104 585 261 q 548 5 572 5 l 532 5 l 532 10 q 559 172 559 79 l 553 334 l 559 517 q 491 679 559 679 l 486 679 l 486 689 m 62 684 l 89 684 l 89 673 q 16 491 29 673 l 31 182 l 31 99 q 62 5 31 39 l 37 5 q 0 319 0 5 q 31 673 0 673 l 62 684 m 308 673 l 370 507 l 370 475 l 366 470 l 366 465 q 250 642 285 465 q 235 668 239 642 l 256 668 l 308 673 m 141 663 q 235 611 216 663 q 376 439 257 439 l 381 439 q 397 470 397 444 l 397 501 q 345 642 397 524 l 345 652 l 407 658 l 449 658 q 527 585 527 658 l 532 522 l 527 329 l 532 151 q 475 26 532 26 l 444 26 q 370 68 370 26 q 245 256 312 256 q 188 235 188 247 l 188 230 q 250 42 188 180 l 250 26 l 141 26 q 58 78 58 26 l 58 120 l 62 193 l 42 491 q 141 663 42 663 m 245 224 q 345 52 298 224 q 387 10 369 10 l 387 0 l 381 0 l 329 21 l 287 5 q 214 209 276 56 l 214 219 l 219 224 l 245 224 z "},"o":{"ha":612,"x_min":0,"x_max":606,"o":"m 318 699 l 323 699 q 553 647 525 699 q 606 345 606 530 q 475 0 606 0 l 475 10 q 569 172 551 10 l 574 486 q 407 684 574 684 l 323 689 l 318 689 l 318 699 m 146 689 l 146 678 q 31 490 47 678 l 31 486 q 83 42 31 42 l 110 10 l 104 10 q 10 172 24 10 l 0 428 q 58 652 6 652 q 146 689 102 689 m 313 663 q 532 574 532 663 q 548 480 539 574 l 543 235 l 543 198 q 480 37 543 71 q 313 21 420 21 l 277 21 q 89 83 89 21 q 58 480 58 83 q 214 663 58 663 l 313 663 m 250 486 l 240 313 q 271 203 250 203 l 345 203 l 355 277 l 355 465 q 308 486 348 486 l 250 486 m 287 459 l 318 459 l 329 449 l 329 266 q 313 235 329 239 l 287 235 q 266 323 273 235 q 287 459 273 459 z "},"p":{"ha":567,"x_min":0,"x_max":572,"o":"m 37 685 l 54 685 q 22 513 31 631 l 26 428 l 26 348 l 22 176 q 70 5 22 70 l 70 0 l 64 0 q 0 139 0 14 l 5 353 l 0 541 q 37 685 9 685 m 492 685 l 498 685 q 567 631 549 663 l 567 546 l 556 546 l 556 551 q 492 674 556 645 l 492 685 m 353 674 l 385 674 q 524 594 503 674 l 535 498 q 439 278 521 278 l 417 273 l 321 278 l 300 278 q 278 214 278 278 l 278 107 q 219 26 278 26 l 113 26 q 54 150 54 26 l 54 541 q 91 663 56 663 l 353 674 m 230 450 q 252 412 243 412 l 305 412 q 348 428 345 412 l 348 503 l 300 513 l 289 513 q 230 450 237 513 m 562 498 l 572 498 l 572 385 q 476 252 572 252 l 476 257 q 562 498 562 326 m 283 487 l 310 487 l 321 476 l 321 450 l 310 439 l 273 439 l 262 450 l 262 465 l 283 487 m 321 252 l 342 252 q 305 11 333 11 l 283 5 l 278 5 l 278 11 q 305 85 305 50 l 305 235 l 321 252 z "},"q":{"ha":607,"x_min":0,"x_max":601,"o":"m 179 699 l 179 688 q 26 567 50 688 l 11 345 q 84 35 20 35 q 190 3 105 16 l 148 -139 l 132 -139 l 126 -134 l 121 -134 l 158 -7 l 153 -7 q 0 230 0 -7 l 0 482 q 63 677 0 652 q 179 699 97 699 m 453 699 q 585 588 543 699 q 601 345 601 499 l 601 309 q 553 50 601 82 q 490 8 530 8 l 490 14 q 580 345 580 92 q 464 688 580 647 l 453 688 l 453 699 m 300 672 l 379 672 q 516 598 496 672 q 548 377 548 497 l 548 298 q 458 35 534 35 q 342 19 418 19 l 327 19 q 58 124 58 19 q 42 303 42 201 l 42 398 q 95 641 42 606 q 300 672 170 672 m 237 409 l 242 251 l 242 230 q 290 209 242 214 l 327 214 l 342 209 l 353 251 l 348 451 l 348 477 l 295 488 q 237 409 246 488 m 300 461 q 321 446 321 454 l 321 435 l 316 435 l 327 261 q 311 240 319 240 l 279 240 l 274 245 l 269 245 l 274 251 l 263 393 q 300 461 263 461 m 427 -2 q 469 -139 444 -2 l 464 -144 l 458 -144 q 411 -7 443 -144 l 416 -2 l 427 -2 m 221 -23 l 374 -23 q 411 -113 388 -23 l 411 -118 l 184 -118 l 184 -113 q 221 -23 202 -23 z "},"r":{"ha":592,"x_min":0,"x_max":587,"o":"m 42 682 l 47 682 q 58 666 58 682 q 21 503 21 590 l 26 246 l 26 142 q 63 16 31 16 l 63 5 q 5 131 5 5 l 0 168 l 5 341 l 0 551 q 42 682 0 635 m 430 682 l 435 682 q 577 540 577 659 l 582 509 q 535 351 582 402 q 587 157 587 296 q 540 0 578 14 l 535 5 l 530 5 q 561 136 561 72 l 561 157 l 566 163 l 561 168 l 561 194 q 509 351 561 283 q 561 509 561 409 q 441 671 561 626 l 430 671 l 430 682 m 294 666 q 535 503 535 666 q 472 351 535 414 q 535 189 535 287 l 535 142 q 477 26 535 26 l 420 26 q 341 68 341 26 l 341 236 q 299 257 341 250 l 294 257 q 231 241 231 257 l 225 215 l 231 115 q 168 21 231 21 l 136 21 q 52 121 52 21 l 52 519 q 89 656 52 625 l 294 666 m 231 482 l 231 430 q 294 414 231 418 q 341 456 341 416 l 341 493 q 294 514 334 514 l 246 514 q 231 482 231 509 m 288 488 l 304 488 l 315 477 l 315 456 l 304 446 l 267 446 l 257 456 l 257 472 q 288 488 262 488 m 267 231 l 299 231 l 315 215 l 315 194 l 309 121 q 351 10 309 19 l 351 0 l 346 0 q 299 52 304 0 q 231 5 264 5 l 231 10 q 257 115 257 50 l 257 220 l 267 231 z "},"s":{"ha":562,"x_min":0,"x_max":568,"o":"m 216 699 l 216 688 l 205 688 q 16 441 16 688 q 116 289 32 289 q 247 231 247 267 l 231 221 l 216 221 q 63 258 187 221 l 74 289 q 0 463 18 289 l 0 473 q 105 688 0 630 l 216 699 m 494 684 l 515 684 q 547 625 547 667 l 547 441 l 536 431 l 526 431 l 520 436 l 515 436 l 536 552 q 494 678 536 632 l 494 684 m 258 667 l 447 663 l 468 663 q 505 573 505 642 l 505 531 q 489 463 505 463 q 352 499 393 499 l 326 499 l 268 484 l 268 473 q 426 384 287 384 q 520 279 520 369 l 520 221 q 394 26 500 26 l 352 21 l 331 21 l 90 42 l 74 37 q 58 126 58 68 q 79 226 58 226 q 210 195 179 195 l 221 195 l 279 210 q 121 315 279 298 q 47 426 47 315 l 47 473 q 147 652 47 617 l 258 667 m 315 473 l 347 473 q 499 431 385 473 l 505 426 l 505 420 l 499 405 q 568 226 568 361 q 463 5 547 5 l 452 5 l 452 16 q 552 247 552 84 q 478 399 552 356 q 300 463 300 424 l 315 473 m 42 263 l 42 258 l 32 121 l 32 116 q 53 5 32 77 l 47 5 q 11 95 11 5 l 16 252 l 42 263 m 121 11 l 179 11 l 179 0 l 121 0 l 121 11 z "},"t":{"ha":592,"x_min":0,"x_max":599,"o":"m 397 699 l 461 699 q 599 599 599 699 l 599 588 q 556 418 586 418 l 541 413 l 541 424 q 572 541 572 469 l 572 567 q 524 684 572 652 l 408 684 l 397 694 l 397 699 m 64 688 l 64 684 q 21 567 21 643 l 42 418 l 26 418 q 0 572 0 430 q 58 688 0 688 l 64 688 m 180 678 l 471 657 l 514 657 q 545 551 545 631 q 519 445 545 477 q 424 466 465 466 l 418 466 q 397 371 406 466 l 403 175 l 403 138 q 339 26 403 26 l 270 26 q 196 85 196 26 q 185 170 185 115 l 191 424 q 159 461 191 461 l 74 450 q 47 577 56 450 q 175 678 47 678 l 180 678 m 439 439 l 503 424 l 503 413 l 450 413 l 450 90 q 397 5 450 5 l 392 5 q 434 159 434 66 l 429 260 l 429 424 l 439 439 m 154 434 l 164 408 l 159 243 l 159 164 q 207 11 159 41 l 212 11 l 212 0 q 138 117 138 0 l 138 286 l 143 345 q 111 413 143 413 l 85 413 l 85 424 l 154 434 z "},"u":{"ha":572,"x_min":0,"x_max":552,"o":"m 230 675 l 327 675 l 327 665 q 307 568 307 665 l 312 296 q 286 256 312 270 l 266 256 q 245 353 250 256 l 250 572 q 230 665 247 665 l 230 675 m 41 669 l 41 665 l 31 649 l 36 562 l 36 526 l 16 225 q 113 26 16 63 l 179 10 l 179 0 q 36 56 62 0 q 0 276 0 136 l 20 665 l 26 669 l 41 669 m 532 665 q 547 634 547 659 l 552 526 l 547 419 l 552 199 q 470 16 541 16 l 455 10 l 455 16 q 536 245 536 71 l 516 613 q 532 665 520 665 m 72 649 l 163 649 q 220 634 220 649 l 225 562 l 220 378 l 220 363 q 256 230 220 230 l 281 225 q 337 302 337 240 l 337 409 l 332 572 q 353 644 332 644 l 419 649 l 435 649 q 491 629 491 649 l 511 256 q 429 36 499 36 q 327 20 392 20 l 296 20 q 56 133 56 33 q 46 194 47 133 l 46 235 l 66 542 l 56 639 l 72 649 z "},"v":{"ha":667,"x_min":0,"x_max":662,"o":"m 217 688 l 228 688 l 228 677 l 217 677 l 217 688 m 598 683 q 662 614 662 683 l 662 598 q 551 58 662 519 q 513 5 529 11 l 498 5 l 498 11 q 630 593 562 157 l 630 630 q 598 673 630 673 l 598 683 m 42 677 l 47 677 l 47 673 q 21 614 21 647 q 180 0 122 100 l 175 0 q 53 345 106 0 q 0 593 0 505 q 42 677 0 677 m 296 677 l 334 673 l 371 677 l 366 562 l 366 291 q 317 243 366 243 l 313 243 l 302 254 l 302 264 q 286 673 302 534 l 291 677 l 296 677 m 122 662 q 264 635 264 655 l 281 228 l 313 217 l 376 217 q 392 313 392 217 l 392 583 q 418 651 392 651 l 466 656 l 540 656 q 604 630 604 656 q 482 37 604 476 l 392 26 l 275 26 q 185 53 185 26 q 47 625 122 226 q 122 662 58 662 m 477 11 l 487 11 l 487 0 l 477 0 l 477 11 z "},"w":{"ha":858,"x_min":0,"x_max":836,"o":"m 717 681 l 748 681 q 836 650 809 681 q 701 20 836 511 l 671 10 l 671 16 q 800 572 724 139 l 804 624 q 753 671 804 671 l 717 671 l 717 681 m 232 671 l 320 671 l 320 660 l 309 660 l 351 469 l 340 459 l 330 459 q 253 634 273 459 q 232 671 232 654 m 41 665 l 41 655 l 31 655 l 31 650 q 165 20 31 485 l 186 16 l 186 5 l 160 5 q 67 283 120 5 q 0 614 0 532 q 41 665 0 665 m 521 660 l 593 660 l 593 655 l 542 479 q 505 459 528 459 l 485 475 l 485 479 l 521 650 l 521 660 m 98 645 l 165 645 q 232 598 232 645 q 340 428 249 428 l 346 428 q 376 459 376 428 l 376 475 q 340 634 376 514 l 356 645 l 475 645 q 490 624 490 645 l 454 475 q 515 433 454 433 q 608 629 576 433 q 655 645 628 645 l 758 645 l 774 629 l 774 598 q 660 62 774 494 q 547 31 660 31 l 542 31 q 469 155 490 31 q 438 201 469 201 q 423 222 423 201 q 340 46 380 222 q 268 31 321 31 l 242 31 q 176 77 176 31 q 57 634 57 513 l 98 645 m 412 176 l 428 176 q 469 52 441 176 l 495 16 l 495 5 q 428 77 448 5 l 408 77 q 356 5 395 5 l 346 5 l 346 10 q 397 160 373 32 l 412 176 m 505 10 l 521 10 l 521 0 l 505 0 l 505 10 z "},"x":{"ha":671,"x_min":0,"x_max":677,"o":"m 549 699 q 667 618 667 699 q 581 350 667 515 q 677 16 677 155 l 661 0 l 640 0 l 640 11 l 656 16 q 565 328 656 92 l 532 339 l 490 339 l 479 350 l 490 360 l 538 360 q 591 435 591 367 q 635 656 635 564 q 559 688 597 688 l 549 688 l 549 699 m 92 688 l 92 677 q 43 640 53 677 q 108 371 43 545 l 140 360 l 183 360 l 194 350 l 194 345 l 183 334 l 113 334 q 33 16 33 108 l 33 0 q 0 16 0 5 q 97 345 0 140 q 22 602 22 472 l 22 661 q 92 688 22 676 m 296 683 l 350 677 l 355 677 l 382 683 l 366 602 l 371 479 l 366 473 l 317 473 q 301 527 301 473 l 307 602 l 296 683 m 516 667 q 602 640 602 660 l 602 635 q 549 387 602 532 l 500 387 q 452 350 452 387 q 490 312 452 312 l 532 312 q 608 113 555 312 q 624 33 624 65 q 554 22 600 22 l 490 22 q 404 38 404 22 l 404 226 q 350 253 391 253 l 301 253 q 279 172 287 253 l 285 86 q 264 22 281 22 l 102 22 q 59 38 62 22 q 134 307 79 168 l 140 307 l 145 301 l 151 301 q 226 334 226 310 l 226 366 q 189 387 217 387 l 134 387 q 75 586 99 450 l 70 640 q 151 661 105 661 l 242 661 q 274 646 274 659 l 274 527 l 285 446 l 393 446 l 398 484 l 398 490 l 393 613 q 446 661 393 661 l 516 667 m 323 226 l 345 226 q 376 204 376 226 l 371 92 l 382 0 l 376 0 q 350 11 350 0 l 301 0 l 296 5 q 312 92 312 40 l 312 215 l 323 226 z "},"y":{"ha":707,"x_min":0,"x_max":695,"o":"m 41 674 l 41 664 l 16 653 q 151 270 109 357 l 151 264 l 145 264 q 88 363 102 264 q 0 653 0 566 l 0 664 l 41 674 m 384 674 l 378 596 l 378 456 q 327 441 378 444 l 316 456 l 316 607 q 306 664 316 644 l 311 669 l 316 669 l 337 664 l 384 674 m 653 674 q 695 653 695 665 q 570 270 695 568 q 503 249 512 260 l 498 208 l 503 135 l 503 62 q 410 0 503 0 l 384 0 l 384 10 l 404 10 q 482 135 482 10 l 482 249 q 555 280 482 259 q 669 659 669 606 l 653 664 l 653 674 m 125 653 l 151 653 q 286 637 286 653 l 290 607 l 290 596 l 286 492 q 337 415 286 415 l 404 425 l 404 633 q 529 653 404 653 l 565 653 q 637 633 637 653 q 513 290 545 290 q 451 243 451 290 l 456 208 l 456 155 q 399 37 456 37 l 332 31 q 243 98 243 31 l 243 212 q 182 290 243 290 q 98 492 154 290 q 52 637 52 611 l 52 643 l 125 653 m 176 264 l 197 264 q 218 202 218 264 l 218 109 q 249 26 218 26 l 249 16 q 192 94 192 16 l 192 223 q 176 259 192 240 l 176 264 z "},"z":{"ha":582,"x_min":0,"x_max":562,"o":"m 74 689 l 74 678 q 43 562 43 633 l 43 509 l 64 408 l 47 408 q 16 562 16 421 q 74 689 16 689 m 503 689 l 509 689 q 562 572 562 689 q 514 403 562 437 q 408 292 449 349 l 482 302 l 482 292 l 360 271 l 360 275 q 541 546 541 456 l 541 567 q 503 689 530 635 m 329 673 q 498 631 498 673 q 509 572 509 610 l 509 535 q 318 271 509 464 l 318 265 q 366 244 325 244 l 498 271 l 509 239 l 509 143 q 456 43 509 43 l 271 32 l 217 32 q 64 74 64 32 l 53 143 q 217 392 53 231 q 249 456 249 435 l 212 461 l 85 440 q 69 525 69 474 l 69 557 q 132 668 69 668 l 329 673 m 201 429 l 201 418 q 26 159 26 238 l 26 132 q 90 21 26 21 q 143 11 90 11 l 143 0 q 11 64 11 0 q 0 143 0 90 q 106 345 0 292 l 143 387 l 143 397 q 117 408 143 408 l 117 418 l 201 429 m 519 302 l 541 302 q 562 164 559 302 l 562 154 q 498 11 562 11 l 488 11 l 488 21 q 541 175 541 33 q 519 292 536 292 l 519 302 z "},"{":{"ha":464,"x_min":0,"x_max":0,"o":""},"|":{"ha":361,"x_min":0,"x_max":0,"o":""},"}":{"ha":464,"x_min":0,"x_max":0,"o":""},"~":{"ha":811,"x_min":0,"x_max":0,"o":""},"":{"ha":926,"x_min":0,"x_max":0,"o":""},"":{"ha":926,"x_min":0,"x_max":0,"o":""},"":{"ha":1003,"x_min":0,"x_max":0,"o":""},"":{"ha":926,"x_min":0,"x_max":0,"o":""},"":{"ha":1003,"x_min":0,"x_max":0,"o":""},"":{"ha":1080,"x_min":0,"x_max":0,"o":""},"":{"ha":1003,"x_min":0,"x_max":0,"o":""},"":{"ha":772,"x_min":0,"x_max":0,"o":""},"":{"ha":772,"x_min":0,"x_max":0,"o":""},"":{"ha":772,"x_min":0,"x_max":0,"o":""},"":{"ha":772,"x_min":0,"x_max":0,"o":""},"":{"ha":772,"x_min":0,"x_max":0,"o":""},"":{"ha":772,"x_min":0,"x_max":0,"o":""},"":{"ha":694,"x_min":0,"x_max":0,"o":""},"":{"ha":772,"x_min":0,"x_max":0,"o":""},"":{"ha":772,"x_min":0,"x_max":0,"o":""},"":{"ha":772,"x_min":0,"x_max":0,"o":""},"":{"ha":772,"x_min":0,"x_max":0,"o":""},"":{"ha":386,"x_min":0,"x_max":0,"o":""},"":{"ha":386,"x_min":0,"x_max":0,"o":""},"":{"ha":386,"x_min":0,"x_max":0,"o":""},"":{"ha":386,"x_min":0,"x_max":0,"o":""},"":{"ha":772,"x_min":0,"x_max":0,"o":""},"":{"ha":772,"x_min":0,"x_max":0,"o":""},"":{"ha":772,"x_min":0,"x_max":0,"o":""},"":{"ha":772,"x_min":0,"x_max":0,"o":""},"":{"ha":772,"x_min":0,"x_max":0,"o":""},"":{"ha":772,"x_min":0,"x_max":0,"o":""},"":{"ha":772,"x_min":0,"x_max":0,"o":""},"":{"ha":772,"x_min":0,"x_max":0,"o":""},"":{"ha":772,"x_min":0,"x_max":0,"o":""},"":{"ha":772,"x_min":0,"x_max":0,"o":""},"":{"ha":772,"x_min":0,"x_max":0,"o":""},"":{"ha":555,"x_min":0,"x_max":0,"o":""},"":{"ha":772,"x_min":0,"x_max":0,"o":""},"":{"ha":772,"x_min":0,"x_max":0,"o":""},"":{"ha":772,"x_min":0,"x_max":0,"o":""},"":{"ha":486,"x_min":0,"x_max":0,"o":""},"":{"ha":746,"x_min":0,"x_max":0,"o":""},"":{"ha":848,"x_min":0,"x_max":0,"o":""},"":{"ha":1023,"x_min":0,"x_max":0,"o":""},"":{"ha":1023,"x_min":0,"x_max":0,"o":""},"":{"ha":1389,"x_min":0,"x_max":0,"o":""},"":{"ha":463,"x_min":0,"x_max":0,"o":""},"":{"ha":463,"x_min":0,"x_max":0,"o":""},"":{"ha":762,"x_min":0,"x_max":0,"o":""},"":{"ha":1389,"x_min":0,"x_max":0,"o":""},"":{"ha":1080,"x_min":0,"x_max":0,"o":""},"":{"ha":990,"x_min":0,"x_max":0,"o":""},"":{"ha":762,"x_min":0,"x_max":0,"o":""},"":{"ha":762,"x_min":0,"x_max":0,"o":""},"":{"ha":762,"x_min":0,"x_max":0,"o":""},"":{"ha":772,"x_min":0,"x_max":0,"o":""},"":{"ha":800,"x_min":0,"x_max":0,"o":""},"":{"ha":686,"x_min":0,"x_max":0,"o":""},"":{"ha":990,"x_min":0,"x_max":0,"o":""},"":{"ha":1143,"x_min":0,"x_max":0,"o":""},"":{"ha":380,"x_min":0,"x_max":0,"o":""},"":{"ha":514,"x_min":0,"x_max":0,"o":""},"":{"ha":507,"x_min":0,"x_max":0,"o":""},"":{"ha":1067,"x_min":0,"x_max":0,"o":""},"":{"ha":1235,"x_min":0,"x_max":0,"o":""},"":{"ha":848,"x_min":0,"x_max":0,"o":""},"":{"ha":848,"x_min":0,"x_max":0,"o":""},"":{"ha":463,"x_min":0,"x_max":0,"o":""},"":{"ha":811,"x_min":0,"x_max":0,"o":""},"":{"ha":762,"x_min":0,"x_max":0,"o":""},"":{"ha":772,"x_min":0,"x_max":0,"o":""},"":{"ha":762,"x_min":0,"x_max":0,"o":""},"":{"ha":850,"x_min":0,"x_max":0,"o":""},"":{"ha":772,"x_min":0,"x_max":0,"o":""},"":{"ha":772,"x_min":0,"x_max":0,"o":""},"":{"ha":1389,"x_min":0,"x_max":0,"o":""},"":{"ha":926,"x_min":0,"x_max":0,"o":""},"":{"ha":926,"x_min":0,"x_max":0,"o":""},"":{"ha":1080,"x_min":0,"x_max":0,"o":""},"":{"ha":1389,"x_min":0,"x_max":0,"o":""},"":{"ha":1311,"x_min":0,"x_max":0,"o":""},"":{"ha":772,"x_min":0,"x_max":0,"o":""},"":{"ha":1389,"x_min":0,"x_max":0,"o":""},"":{"ha":463,"x_min":0,"x_max":0,"o":""},"":{"ha":463,"x_min":0,"x_max":0,"o":""},"":{"ha":309,"x_min":0,"x_max":0,"o":""},"":{"ha":309,"x_min":0,"x_max":0,"o":""},"":{"ha":762,"x_min":0,"x_max":0,"o":""},"":{"ha":686,"x_min":0,"x_max":0,"o":""},"":{"ha":694,"x_min":0,"x_max":0,"o":""},"":{"ha":926,"x_min":0,"x_max":0,"o":""},"":{"ha":232,"x_min":0,"x_max":0,"o":""},"":{"ha":772,"x_min":0,"x_max":0,"o":""},"":{"ha":463,"x_min":0,"x_max":0,"o":""},"":{"ha":463,"x_min":0,"x_max":0,"o":""},"":{"ha":694,"x_min":0,"x_max":0,"o":""},"":{"ha":694,"x_min":0,"x_max":0,"o":""},"":{"ha":772,"x_min":0,"x_max":0,"o":""},"":{"ha":386,"x_min":0,"x_max":0,"o":""},"":{"ha":309,"x_min":0,"x_max":0,"o":""},"":{"ha":463,"x_min":0,"x_max":0,"o":""},"":{"ha":1389,"x_min":0,"x_max":0,"o":""},"":{"ha":926,"x_min":0,"x_max":0,"o":""},"":{"ha":926,"x_min":0,"x_max":0,"o":""},"":{"ha":926,"x_min":0,"x_max":0,"o":""},"":{"ha":926,"x_min":0,"x_max":0,"o":""},"":{"ha":926,"x_min":0,"x_max":0,"o":""},"":{"ha":386,"x_min":0,"x_max":0,"o":""},"":{"ha":386,"x_min":0,"x_max":0,"o":""},"":{"ha":386,"x_min":0,"x_max":0,"o":""},"":{"ha":386,"x_min":0,"x_max":0,"o":""},"":{"ha":1080,"x_min":0,"x_max":0,"o":""},"":{"ha":1080,"x_min":0,"x_max":0,"o":""},"":{"ha":1080,"x_min":0,"x_max":0,"o":""},"":{"ha":1003,"x_min":0,"x_max":0,"o":""},"":{"ha":1003,"x_min":0,"x_max":0,"o":""},"":{"ha":1003,"x_min":0,"x_max":0,"o":""},"":{"ha":386,"x_min":0,"x_max":0,"o":""},"":{"ha":463,"x_min":0,"x_max":0,"o":""},"":{"ha":463,"x_min":0,"x_max":0,"o":""},"":{"ha":463,"x_min":0,"x_max":0,"o":""},"":{"ha":463,"x_min":0,"x_max":0,"o":""},"":{"ha":463,"x_min":0,"x_max":0,"o":""},"":{"ha":463,"x_min":0,"x_max":0,"o":""},"":{"ha":463,"x_min":0,"x_max":0,"o":""},"":{"ha":463,"x_min":0,"x_max":0,"o":""},"":{"ha":463,"x_min":0,"x_max":0,"o":""},"":{"ha":463,"x_min":0,"x_max":0,"o":""},"":{"ha":772,"x_min":0,"x_max":0,"o":""},"":{"ha":309,"x_min":0,"x_max":0,"o":""},"":{"ha":926,"x_min":0,"x_max":0,"o":""},"":{"ha":694,"x_min":0,"x_max":0,"o":""},"":{"ha":848,"x_min":0,"x_max":0,"o":""},"":{"ha":694,"x_min":0,"x_max":0,"o":""},"":{"ha":361,"x_min":0,"x_max":0,"o":""},"":{"ha":1003,"x_min":0,"x_max":0,"o":""},"":{"ha":772,"x_min":0,"x_max":0,"o":""},"":{"ha":926,"x_min":0,"x_max":0,"o":""},"":{"ha":694,"x_min":0,"x_max":0,"o":""},"":{"ha":926,"x_min":0,"x_max":0,"o":""},"":{"ha":772,"x_min":0,"x_max":0,"o":""},"":{"ha":811,"x_min":0,"x_max":0,"o":""},"":{"ha":811,"x_min":0,"x_max":0,"o":""},"":{"ha":463,"x_min":0,"x_max":0,"o":""},"":{"ha":463,"x_min":0,"x_max":0,"o":""},"":{"ha":463,"x_min":0,"x_max":0,"o":""},"":{"ha":1158,"x_min":0,"x_max":0,"o":""},"":{"ha":1158,"x_min":0,"x_max":0,"o":""},"":{"ha":1158,"x_min":0,"x_max":0,"o":""},"":{"ha":772,"x_min":0,"x_max":0,"o":""},"":{"ha":1080,"x_min":0,"x_max":0,"o":""},"":{"ha":772,"x_min":0,"x_max":0,"o":""},"":{"ha":386,"x_min":0,"x_max":0,"o":""},"":{"ha":926,"x_min":0,"x_max":0,"o":""},"":{"ha":694,"x_min":0,"x_max":0,"o":""},"":{"ha":1003,"x_min":0,"x_max":0,"o":""},"":{"ha":694,"x_min":0,"x_max":0,"o":""},"":{"ha":1003,"x_min":0,"x_max":0,"o":""},"":{"ha":694,"x_min":0,"x_max":0,"o":""},"":{"ha":772,"x_min":0,"x_max":0,"o":""},"":{"ha":772,"x_min":0,"x_max":0,"o":""},"":{"ha":767,"x_min":0,"x_max":0,"o":""},"":{"ha":926,"x_min":0,"x_max":0,"o":""},"":{"ha":772,"x_min":0,"x_max":0,"o":""},"":{"ha":926,"x_min":0,"x_max":0,"o":""},"":{"ha":772,"x_min":0,"x_max":0,"o":""},"":{"ha":926,"x_min":0,"x_max":0,"o":""},"":{"ha":772,"x_min":0,"x_max":0,"o":""},"":{"ha":1003,"x_min":0,"x_max":0,"o":""},"":{"ha":694,"x_min":0,"x_max":0,"o":""},"":{"ha":1003,"x_min":0,"x_max":0,"o":""},"":{"ha":694,"x_min":0,"x_max":0,"o":""},"":{"ha":1003,"x_min":0,"x_max":0,"o":""},"":{"ha":854,"x_min":0,"x_max":0,"o":""},"":{"ha":1003,"x_min":0,"x_max":0,"o":""},"":{"ha":926,"x_min":0,"x_max":0,"o":""},"":{"ha":772,"x_min":0,"x_max":0,"o":""},"":{"ha":926,"x_min":0,"x_max":0,"o":""},"":{"ha":772,"x_min":0,"x_max":0,"o":""},"":{"ha":926,"x_min":0,"x_max":0,"o":""},"":{"ha":772,"x_min":0,"x_max":0,"o":""},"":{"ha":926,"x_min":0,"x_max":0,"o":""},"":{"ha":772,"x_min":0,"x_max":0,"o":""},"":{"ha":926,"x_min":0,"x_max":0,"o":""},"":{"ha":772,"x_min":0,"x_max":0,"o":""},"":{"ha":1080,"x_min":0,"x_max":0,"o":""},"":{"ha":772,"x_min":0,"x_max":0,"o":""},"":{"ha":1080,"x_min":0,"x_max":0,"o":""},"":{"ha":772,"x_min":0,"x_max":0,"o":""},"":{"ha":1080,"x_min":0,"x_max":0,"o":""},"":{"ha":772,"x_min":0,"x_max":0,"o":""},"":{"ha":1003,"x_min":0,"x_max":0,"o":""},"":{"ha":772,"x_min":0,"x_max":0,"o":""},"":{"ha":1003,"x_min":0,"x_max":0,"o":""},"":{"ha":772,"x_min":0,"x_max":0,"o":""},"":{"ha":386,"x_min":0,"x_max":0,"o":""},"":{"ha":386,"x_min":0,"x_max":0,"o":""},"":{"ha":386,"x_min":0,"x_max":0,"o":""},"":{"ha":386,"x_min":0,"x_max":0,"o":""},"":{"ha":386,"x_min":0,"x_max":0,"o":""},"":{"ha":386,"x_min":0,"x_max":0,"o":""},"":{"ha":386,"x_min":0,"x_max":0,"o":""},"":{"ha":309,"x_min":0,"x_max":0,"o":""},"":{"ha":1021,"x_min":0,"x_max":0,"o":""},"":{"ha":616,"x_min":0,"x_max":0,"o":""},"":{"ha":694,"x_min":0,"x_max":0,"o":""},"":{"ha":309,"x_min":0,"x_max":0,"o":""},"":{"ha":926,"x_min":0,"x_max":0,"o":""},"":{"ha":694,"x_min":0,"x_max":0,"o":""},"":{"ha":694,"x_min":0,"x_max":0,"o":""},"":{"ha":772,"x_min":0,"x_max":0,"o":""},"":{"ha":309,"x_min":0,"x_max":0,"o":""},"":{"ha":772,"x_min":0,"x_max":0,"o":""},"":{"ha":309,"x_min":0,"x_max":0,"o":""},"":{"ha":772,"x_min":0,"x_max":0,"o":""},"":{"ha":405,"x_min":0,"x_max":0,"o":""},"":{"ha":772,"x_min":0,"x_max":0,"o":""},"":{"ha":464,"x_min":0,"x_max":0,"o":""},"":{"ha":1003,"x_min":0,"x_max":0,"o":""},"":{"ha":772,"x_min":0,"x_max":0,"o":""},"":{"ha":1003,"x_min":0,"x_max":0,"o":""},"":{"ha":772,"x_min":0,"x_max":0,"o":""},"":{"ha":1003,"x_min":0,"x_max":0,"o":""},"":{"ha":772,"x_min":0,"x_max":0,"o":""},"":{"ha":839,"x_min":0,"x_max":0,"o":""},"":{"ha":1004,"x_min":0,"x_max":0,"o":""},"":{"ha":772,"x_min":0,"x_max":0,"o":""},"":{"ha":1080,"x_min":0,"x_max":0,"o":""},"":{"ha":772,"x_min":0,"x_max":0,"o":""},"":{"ha":1080,"x_min":0,"x_max":0,"o":""},"":{"ha":772,"x_min":0,"x_max":0,"o":""},"":{"ha":1080,"x_min":0,"x_max":0,"o":""},"":{"ha":772,"x_min":0,"x_max":0,"o":""},"":{"ha":1003,"x_min":0,"x_max":0,"o":""},"":{"ha":463,"x_min":0,"x_max":0,"o":""},"":{"ha":1003,"x_min":0,"x_max":0,"o":""},"":{"ha":463,"x_min":0,"x_max":0,"o":""},"":{"ha":1003,"x_min":0,"x_max":0,"o":""},"":{"ha":463,"x_min":0,"x_max":0,"o":""},"":{"ha":926,"x_min":0,"x_max":0,"o":""},"":{"ha":694,"x_min":0,"x_max":0,"o":""},"":{"ha":926,"x_min":0,"x_max":0,"o":""},"":{"ha":694,"x_min":0,"x_max":0,"o":""},"":{"ha":848,"x_min":0,"x_max":0,"o":""},"":{"ha":386,"x_min":0,"x_max":0,"o":""},"":{"ha":848,"x_min":0,"x_max":0,"o":""},"":{"ha":521,"x_min":0,"x_max":0,"o":""},"":{"ha":848,"x_min":0,"x_max":0,"o":""},"":{"ha":386,"x_min":0,"x_max":0,"o":""},"":{"ha":1003,"x_min":0,"x_max":0,"o":""},"":{"ha":772,"x_min":0,"x_max":0,"o":""},"":{"ha":1003,"x_min":0,"x_max":0,"o":""},"":{"ha":772,"x_min":0,"x_max":0,"o":""},"":{"ha":1003,"x_min":0,"x_max":0,"o":""},"":{"ha":772,"x_min":0,"x_max":0,"o":""},"":{"ha":1003,"x_min":0,"x_max":0,"o":""},"":{"ha":772,"x_min":0,"x_max":0,"o":""},"":{"ha":1003,"x_min":0,"x_max":0,"o":""},"":{"ha":772,"x_min":0,"x_max":0,"o":""},"":{"ha":1003,"x_min":0,"x_max":0,"o":""},"":{"ha":772,"x_min":0,"x_max":0,"o":""},"":{"ha":1311,"x_min":0,"x_max":0,"o":""},"":{"ha":1003,"x_min":0,"x_max":0,"o":""},"":{"ha":926,"x_min":0,"x_max":0,"o":""},"":{"ha":694,"x_min":0,"x_max":0,"o":""},"":{"ha":848,"x_min":0,"x_max":0,"o":""},"":{"ha":694,"x_min":0,"x_max":0,"o":""},"":{"ha":848,"x_min":0,"x_max":0,"o":""},"":{"ha":694,"x_min":0,"x_max":0,"o":""},"":{"ha":309,"x_min":0,"x_max":0,"o":""},"":{"ha":926,"x_min":0,"x_max":0,"o":""},"":{"ha":772,"x_min":0,"x_max":0,"o":""},"":{"ha":1389,"x_min":0,"x_max":0,"o":""},"":{"ha":1235,"x_min":0,"x_max":0,"o":""},"":{"ha":1080,"x_min":0,"x_max":0,"o":""},"":{"ha":848,"x_min":0,"x_max":0,"o":""},"":{"ha":463,"x_min":0,"x_max":0,"o":""},"":{"ha":463,"x_min":0,"x_max":0,"o":""},"":{"ha":927,"x_min":0,"x_max":0,"o":""},"":{"ha":386,"x_min":0,"x_max":0,"o":""},"":{"ha":1089,"x_min":0,"x_max":0,"o":""},"":{"ha":1164,"x_min":0,"x_max":0,"o":""},"":{"ha":533,"x_min":0,"x_max":0,"o":""},"":{"ha":1076,"x_min":0,"x_max":0,"o":""},"":{"ha":1188,"x_min":0,"x_max":0,"o":""},"":{"ha":1045,"x_min":0,"x_max":0,"o":""},"":{"ha":309,"x_min":0,"x_max":0,"o":""},"":{"ha":926,"x_min":0,"x_max":0,"o":""},"":{"ha":926,"x_min":0,"x_max":0,"o":""},"":{"ha":765,"x_min":0,"x_max":0,"o":""},"":{"ha":928,"x_min":0,"x_max":0,"o":""},"":{"ha":926,"x_min":0,"x_max":0,"o":""},"":{"ha":848,"x_min":0,"x_max":0,"o":""},"":{"ha":1003,"x_min":0,"x_max":0,"o":""},"":{"ha":1080,"x_min":0,"x_max":0,"o":""},"":{"ha":386,"x_min":0,"x_max":0,"o":""},"":{"ha":926,"x_min":0,"x_max":0,"o":""},"":{"ha":928,"x_min":0,"x_max":0,"o":""},"":{"ha":1157,"x_min":0,"x_max":0,"o":""},"":{"ha":1003,"x_min":0,"x_max":0,"o":""},"":{"ha":903,"x_min":0,"x_max":0,"o":""},"":{"ha":1080,"x_min":0,"x_max":0,"o":""},"":{"ha":1003,"x_min":0,"x_max":0,"o":""},"":{"ha":926,"x_min":0,"x_max":0,"o":""},"":{"ha":859,"x_min":0,"x_max":0,"o":""},"":{"ha":848,"x_min":0,"x_max":0,"o":""},"":{"ha":926,"x_min":0,"x_max":0,"o":""},"":{"ha":1108,"x_min":0,"x_max":0,"o":""},"":{"ha":926,"x_min":0,"x_max":0,"o":""},"":{"ha":1160,"x_min":0,"x_max":0,"o":""},"":{"ha":1038,"x_min":0,"x_max":0,"o":""},"":{"ha":386,"x_min":0,"x_max":0,"o":""},"":{"ha":926,"x_min":0,"x_max":0,"o":""},"":{"ha":803,"x_min":0,"x_max":0,"o":""},"":{"ha":619,"x_min":0,"x_max":0,"o":""},"":{"ha":772,"x_min":0,"x_max":0,"o":""},"":{"ha":309,"x_min":0,"x_max":0,"o":""},"":{"ha":760,"x_min":0,"x_max":0,"o":""},"":{"ha":803,"x_min":0,"x_max":0,"o":""},"":{"ha":799,"x_min":0,"x_max":0,"o":""},"":{"ha":694,"x_min":0,"x_max":0,"o":""},"":{"ha":773,"x_min":0,"x_max":0,"o":""},"":{"ha":619,"x_min":0,"x_max":0,"o":""},"":{"ha":612,"x_min":0,"x_max":0,"o":""},"":{"ha":772,"x_min":0,"x_max":0,"o":""},"":{"ha":772,"x_min":0,"x_max":0,"o":""},"":{"ha":309,"x_min":0,"x_max":0,"o":""},"":{"ha":694,"x_min":0,"x_max":0,"o":""},"":{"ha":694,"x_min":0,"x_max":0,"o":""},"":{"ha":800,"x_min":0,"x_max":0,"o":""},"":{"ha":694,"x_min":0,"x_max":0,"o":""},"":{"ha":622,"x_min":0,"x_max":0,"o":""},"":{"ha":772,"x_min":0,"x_max":0,"o":""},"":{"ha":958,"x_min":0,"x_max":0,"o":""},"":{"ha":790,"x_min":0,"x_max":0,"o":""},"":{"ha":669,"x_min":0,"x_max":0,"o":""},"":{"ha":857,"x_min":0,"x_max":0,"o":""},"":{"ha":549,"x_min":0,"x_max":0,"o":""},"":{"ha":760,"x_min":0,"x_max":0,"o":""},"":{"ha":901,"x_min":0,"x_max":0,"o":""},"":{"ha":729,"x_min":0,"x_max":0,"o":""},"":{"ha":990,"x_min":0,"x_max":0,"o":""},"":{"ha":1084,"x_min":0,"x_max":0,"o":""},"":{"ha":309,"x_min":0,"x_max":0,"o":""},"":{"ha":760,"x_min":0,"x_max":0,"o":""},"":{"ha":772,"x_min":0,"x_max":0,"o":""},"":{"ha":760,"x_min":0,"x_max":0,"o":""},"":{"ha":1084,"x_min":0,"x_max":0,"o":""},"":{"ha":927,"x_min":0,"x_max":0,"o":""},"":{"ha":1201,"x_min":0,"x_max":0,"o":""},"":{"ha":752,"x_min":0,"x_max":0,"o":""},"":{"ha":998,"x_min":0,"x_max":0,"o":""},"":{"ha":926,"x_min":0,"x_max":0,"o":""},"":{"ha":386,"x_min":0,"x_max":0,"o":""},"":{"ha":386,"x_min":0,"x_max":0,"o":""},"":{"ha":694,"x_min":0,"x_max":0,"o":""},"":{"ha":1468,"x_min":0,"x_max":0,"o":""},"":{"ha":1403,"x_min":0,"x_max":0,"o":""},"":{"ha":1186,"x_min":0,"x_max":0,"o":""},"":{"ha":809,"x_min":0,"x_max":0,"o":""},"":{"ha":882,"x_min":0,"x_max":0,"o":""},"":{"ha":998,"x_min":0,"x_max":0,"o":""},"":{"ha":926,"x_min":0,"x_max":0,"o":""},"":{"ha":911,"x_min":0,"x_max":0,"o":""},"":{"ha":926,"x_min":0,"x_max":0,"o":""},"":{"ha":752,"x_min":0,"x_max":0,"o":""},"":{"ha":941,"x_min":0,"x_max":0,"o":""},"":{"ha":926,"x_min":0,"x_max":0,"o":""},"":{"ha":1282,"x_min":0,"x_max":0,"o":""},"":{"ha":839,"x_min":0,"x_max":0,"o":""},"":{"ha":998,"x_min":0,"x_max":0,"o":""},"":{"ha":998,"x_min":0,"x_max":0,"o":""},"":{"ha":809,"x_min":0,"x_max":0,"o":""},"":{"ha":911,"x_min":0,"x_max":0,"o":""},"":{"ha":1157,"x_min":0,"x_max":0,"o":""},"":{"ha":1003,"x_min":0,"x_max":0,"o":""},"":{"ha":1080,"x_min":0,"x_max":0,"o":""},"":{"ha":998,"x_min":0,"x_max":0,"o":""},"":{"ha":926,"x_min":0,"x_max":0,"o":""},"":{"ha":1003,"x_min":0,"x_max":0,"o":""},"":{"ha":848,"x_min":0,"x_max":0,"o":""},"":{"ha":882,"x_min":0,"x_max":0,"o":""},"":{"ha":1056,"x_min":0,"x_max":0,"o":""},"":{"ha":926,"x_min":0,"x_max":0,"o":""},"":{"ha":1027,"x_min":0,"x_max":0,"o":""},"":{"ha":926,"x_min":0,"x_max":0,"o":""},"":{"ha":1273,"x_min":0,"x_max":0,"o":""},"":{"ha":1302,"x_min":0,"x_max":0,"o":""},"":{"ha":1099,"x_min":0,"x_max":0,"o":""},"":{"ha":1230,"x_min":0,"x_max":0,"o":""},"":{"ha":911,"x_min":0,"x_max":0,"o":""},"":{"ha":998,"x_min":0,"x_max":0,"o":""},"":{"ha":1403,"x_min":0,"x_max":0,"o":""},"":{"ha":1003,"x_min":0,"x_max":0,"o":""},"":{"ha":772,"x_min":0,"x_max":0,"o":""},"":{"ha":795,"x_min":0,"x_max":0,"o":""},"":{"ha":738,"x_min":0,"x_max":0,"o":""},"":{"ha":507,"x_min":0,"x_max":0,"o":""},"":{"ha":810,"x_min":0,"x_max":0,"o":""},"":{"ha":772,"x_min":0,"x_max":0,"o":""},"":{"ha":929,"x_min":0,"x_max":0,"o":""},"":{"ha":637,"x_min":0,"x_max":0,"o":""},"":{"ha":776,"x_min":0,"x_max":0,"o":""},"":{"ha":776,"x_min":0,"x_max":0,"o":""},"":{"ha":608,"x_min":0,"x_max":0,"o":""},"":{"ha":810,"x_min":0,"x_max":0,"o":""},"":{"ha":955,"x_min":0,"x_max":0,"o":""},"":{"ha":767,"x_min":0,"x_max":0,"o":""},"":{"ha":772,"x_min":0,"x_max":0,"o":""},"":{"ha":752,"x_min":0,"x_max":0,"o":""},"":{"ha":772,"x_min":0,"x_max":0,"o":""},"":{"ha":694,"x_min":0,"x_max":0,"o":""},"":{"ha":636,"x_min":0,"x_max":0,"o":""},"":{"ha":694,"x_min":0,"x_max":0,"o":""},"":{"ha":1143,"x_min":0,"x_max":0,"o":""},"":{"ha":694,"x_min":0,"x_max":0,"o":""},"":{"ha":795,"x_min":0,"x_max":0,"o":""},"":{"ha":724,"x_min":0,"x_max":0,"o":""},"":{"ha":1114,"x_min":0,"x_max":0,"o":""},"":{"ha":1143,"x_min":0,"x_max":0,"o":""},"":{"ha":868,"x_min":0,"x_max":0,"o":""},"":{"ha":998,"x_min":0,"x_max":0,"o":""},"":{"ha":724,"x_min":0,"x_max":0,"o":""},"":{"ha":709,"x_min":0,"x_max":0,"o":""},"":{"ha":1042,"x_min":0,"x_max":0,"o":""},"":{"ha":752,"x_min":0,"x_max":0,"o":""},"":{"ha":772,"x_min":0,"x_max":0,"o":""},"":{"ha":772,"x_min":0,"x_max":0,"o":""},"":{"ha":507,"x_min":0,"x_max":0,"o":""},"":{"ha":709,"x_min":0,"x_max":0,"o":""},"":{"ha":694,"x_min":0,"x_max":0,"o":""},"":{"ha":309,"x_min":0,"x_max":0,"o":""},"":{"ha":386,"x_min":0,"x_max":0,"o":""},"":{"ha":309,"x_min":0,"x_max":0,"o":""},"":{"ha":1259,"x_min":0,"x_max":0,"o":""},"":{"ha":1128,"x_min":0,"x_max":0,"o":""},"":{"ha":772,"x_min":0,"x_max":0,"o":""},"":{"ha":608,"x_min":0,"x_max":0,"o":""},"":{"ha":694,"x_min":0,"x_max":0,"o":""},"":{"ha":767,"x_min":0,"x_max":0,"o":""},"":{"ha":679,"x_min":0,"x_max":0,"o":""},"":{"ha":571,"x_min":0,"x_max":0,"o":""},"":{"ha":1311,"x_min":0,"x_max":0,"o":""},"":{"ha":1003,"x_min":0,"x_max":0,"o":""},"":{"ha":1311,"x_min":0,"x_max":0,"o":""},"":{"ha":1003,"x_min":0,"x_max":0,"o":""},"":{"ha":1311,"x_min":0,"x_max":0,"o":""},"":{"ha":1003,"x_min":0,"x_max":0,"o":""},"":{"ha":926,"x_min":0,"x_max":0,"o":""},"":{"ha":694,"x_min":0,"x_max":0,"o":""},"":{"ha":1389,"x_min":0,"x_max":0,"o":""},"":{"ha":767,"x_min":0,"x_max":0,"o":""},"":{"ha":309,"x_min":0,"x_max":0,"o":""},"":{"ha":260,"x_min":0,"x_max":0,"o":""},"":{"ha":492,"x_min":0,"x_max":0,"o":""},"":{"ha":694,"x_min":0,"x_max":0,"o":""},"":{"ha":463,"x_min":0,"x_max":0,"o":""},"":{"ha":507,"x_min":0,"x_max":0,"o":""},"":{"ha":772,"x_min":0,"x_max":0,"o":""},"":{"ha":1519,"x_min":0,"x_max":0,"o":""},"":{"ha":1230,"x_min":0,"x_max":0,"o":""},"":{"ha":449,"x_min":0,"x_max":0,"o":""},"":{"ha":1490,"x_min":0,"x_max":0,"o":""},"":{"ha":833,"x_min":0,"x_max":0,"o":""},"":{"ha":1158,"x_min":0,"x_max":0,"o":""},"":{"ha":1158,"x_min":0,"x_max":0,"o":""},"":{"ha":1158,"x_min":0,"x_max":0,"o":""},"":{"ha":1158,"x_min":0,"x_max":0,"o":""},"":{"ha":1389,"x_min":0,"x_max":0,"o":""},"":{"ha":694,"x_min":0,"x_max":0,"o":""},"":{"ha":1389,"x_min":0,"x_max":0,"o":""},"":{"ha":694,"x_min":0,"x_max":0,"o":""},"":{"ha":1389,"x_min":0,"x_max":0,"o":""},"":{"ha":694,"x_min":0,"x_max":0,"o":""},"":{"ha":694,"x_min":0,"x_max":0,"o":""},"":{"ha":1360,"x_min":0,"x_max":0,"o":""},"":{"ha":998,"x_min":0,"x_max":0,"o":""},"":{"ha":810,"x_min":0,"x_max":0,"o":""},"":{"ha":839,"x_min":0,"x_max":0,"o":""},"":{"ha":811,"x_min":0,"x_max":0,"o":""},"":{"ha":839,"x_min":0,"x_max":0,"o":""},"":{"ha":839,"x_min":0,"x_max":0,"o":""},"":{"ha":984,"x_min":0,"x_max":0,"o":""},"":{"ha":868,"x_min":0,"x_max":0,"o":""},"":{"ha":984,"x_min":0,"x_max":0,"o":""},"":{"ha":984,"x_min":0,"x_max":0,"o":""},"":{"ha":984,"x_min":0,"x_max":0,"o":""},"":{"ha":984,"x_min":0,"x_max":0,"o":""},"":{"ha":984,"x_min":0,"x_max":0,"o":""},"":{"ha":984,"x_min":0,"x_max":0,"o":""},"":{"ha":984,"x_min":0,"x_max":0,"o":""},"":{"ha":984,"x_min":0,"x_max":0,"o":""},"":{"ha":984,"x_min":0,"x_max":0,"o":""},"":{"ha":984,"x_min":0,"x_max":0,"o":""},"":{"ha":984,"x_min":0,"x_max":0,"o":""},"":{"ha":984,"x_min":0,"x_max":0,"o":""},"":{"ha":984,"x_min":0,"x_max":0,"o":""},"":{"ha":984,"x_min":0,"x_max":0,"o":""},"":{"ha":984,"x_min":0,"x_max":0,"o":""},"":{"ha":984,"x_min":0,"x_max":0,"o":""},"":{"ha":984,"x_min":0,"x_max":0,"o":""},"":{"ha":984,"x_min":0,"x_max":0,"o":""},"":{"ha":984,"x_min":0,"x_max":0,"o":""},"":{"ha":984,"x_min":0,"x_max":0,"o":""},"":{"ha":984,"x_min":0,"x_max":0,"o":""},"":{"ha":984,"x_min":0,"x_max":0,"o":""},"":{"ha":984,"x_min":0,"x_max":0,"o":""},"":{"ha":984,"x_min":0,"x_max":0,"o":""},"":{"ha":984,"x_min":0,"x_max":0,"o":""},"":{"ha":984,"x_min":0,"x_max":0,"o":""},"":{"ha":984,"x_min":0,"x_max":0,"o":""},"":{"ha":984,"x_min":0,"x_max":0,"o":""},"":{"ha":984,"x_min":0,"x_max":0,"o":""},"":{"ha":984,"x_min":0,"x_max":0,"o":""},"":{"ha":984,"x_min":0,"x_max":0,"o":""},"":{"ha":984,"x_min":0,"x_max":0,"o":""},"":{"ha":984,"x_min":0,"x_max":0,"o":""},"":{"ha":984,"x_min":0,"x_max":0,"o":""},"":{"ha":984,"x_min":0,"x_max":0,"o":""},"":{"ha":984,"x_min":0,"x_max":0,"o":""},"":{"ha":984,"x_min":0,"x_max":0,"o":""},"":{"ha":984,"x_min":0,"x_max":0,"o":""},"":{"ha":984,"x_min":0,"x_max":0,"o":""},"":{"ha":984,"x_min":0,"x_max":0,"o":""},"":{"ha":984,"x_min":0,"x_max":0,"o":""},"":{"ha":984,"x_min":0,"x_max":0,"o":""},"":{"ha":984,"x_min":0,"x_max":0,"o":""},"":{"ha":984,"x_min":0,"x_max":0,"o":""},"":{"ha":984,"x_min":0,"x_max":0,"o":""},"":{"ha":1013,"x_min":0,"x_max":0,"o":""},"":{"ha":839,"x_min":0,"x_max":0,"o":""},"":{"ha":839,"x_min":0,"x_max":0,"o":""},"":{"ha":492,"x_min":0,"x_max":0,"o":""},"":{"ha":492,"x_min":0,"x_max":0,"o":""},"":{"ha":1389,"x_min":0,"x_max":0,"o":""},"":{"ha":1375,"x_min":0,"x_max":0,"o":""},"":{"ha":1375,"x_min":0,"x_max":0,"o":""},"":{"ha":1375,"x_min":0,"x_max":0,"o":""},"":{"ha":1375,"x_min":0,"x_max":0,"o":""},"":{"ha":839,"x_min":0,"x_max":0,"o":""},"":{"ha":839,"x_min":0,"x_max":0,"o":""},"":{"ha":839,"x_min":0,"x_max":0,"o":""},"":{"ha":839,"x_min":0,"x_max":0,"o":""},"":{"ha":492,"x_min":0,"x_max":0,"o":""},"":{"ha":1418,"x_min":0,"x_max":0,"o":""},"":{"ha":1461,"x_min":0,"x_max":0,"o":""},"":{"ha":1273,"x_min":0,"x_max":0,"o":""},"":{"ha":1042,"x_min":0,"x_max":0,"o":""},"":{"ha":1042,"x_min":0,"x_max":0,"o":""},"":{"ha":738,"x_min":0,"x_max":0,"o":""},"":{"ha":911,"x_min":0,"x_max":0,"o":""},"":{"ha":825,"x_min":0,"x_max":0,"o":""},"":{"ha":709,"x_min":0,"x_max":0,"o":""},"":{"ha":694,"x_min":0,"x_max":0,"o":""},"":{"ha":1042,"x_min":0,"x_max":0,"o":""},"":{"ha":463,"x_min":0,"x_max":0,"o":""},"":{"ha":463,"x_min":0,"x_max":0,"o":""}}}
